ISO-10303-21;
HEADER;
/* Generated by software containing ST-Developer
 * from STEP Tools, Inc. (www.steptools.com) 
 */
/* OPTION: using custom renumber hook */

FILE_DESCRIPTION(
/* description */ ('STEP AP242 Edition 2',
'CAx-IF Rec.Pracs.---Representation and Presentation of Product Manufa
cturing Information (PMI)---4.0---2014-10-13',
'CAx-IF Rec.Pracs.---3D Tessellated Geometry---0.4---2014-09-14','2;1',
'CAx-IF Rec.Pracs.---User Defined Attributes---1.5---2016-08-15'),
/* implementation_level */ '2;1');

FILE_NAME(
/* name */ 'bottom shell',
/* time_stamp */ '2026-08-26T23:47:02Z',
/* author */ (''),
/* organization */ (''),
/* preprocessor_version */ 'ST-DEVELOPER v20',
/* originating_system */ 'ONSHAPE BY PTC INC, 1.219',
/* authorisation */ '  ');

FILE_SCHEMA (('AP242_MANAGED_MODEL_BASED_3D_ENGINEERING_MIM_LF { 1 0 10303 442 3 1 4 }'));
ENDSEC;

DATA;
#10=SHAPE_REPRESENTATION_RELATIONSHIP('','',#747,#11);
#11=ADVANCED_BREP_SHAPE_REPRESENTATION('',(#745),#1173);
#12=CYLINDRICAL_SURFACE('',#759,0.0016);
#13=CYLINDRICAL_SURFACE('',#761,0.0016);
#14=CIRCLE('',#752,0.0016);
#15=CIRCLE('',#753,0.0016);
#16=CIRCLE('',#760,0.0016);
#17=CIRCLE('',#762,0.0016);
#18=ORIENTED_EDGE('',*,*,#218,.T.);
#19=ORIENTED_EDGE('',*,*,#219,.T.);
#20=ORIENTED_EDGE('',*,*,#220,.T.);
#21=ORIENTED_EDGE('',*,*,#221,.T.);
#22=ORIENTED_EDGE('',*,*,#222,.F.);
#23=ORIENTED_EDGE('',*,*,#223,.F.);
#24=ORIENTED_EDGE('',*,*,#224,.F.);
#25=ORIENTED_EDGE('',*,*,#225,.T.);
#26=ORIENTED_EDGE('',*,*,#226,.F.);
#27=ORIENTED_EDGE('',*,*,#227,.F.);
#28=ORIENTED_EDGE('',*,*,#228,.T.);
#29=ORIENTED_EDGE('',*,*,#229,.F.);
#30=ORIENTED_EDGE('',*,*,#230,.T.);
#31=ORIENTED_EDGE('',*,*,#231,.T.);
#32=ORIENTED_EDGE('',*,*,#232,.T.);
#33=ORIENTED_EDGE('',*,*,#233,.T.);
#34=ORIENTED_EDGE('',*,*,#234,.F.);
#35=ORIENTED_EDGE('',*,*,#235,.F.);
#36=ORIENTED_EDGE('',*,*,#236,.T.);
#37=ORIENTED_EDGE('',*,*,#237,.F.);
#38=ORIENTED_EDGE('',*,*,#238,.F.);
#39=ORIENTED_EDGE('',*,*,#239,.F.);
#40=ORIENTED_EDGE('',*,*,#240,.F.);
#41=ORIENTED_EDGE('',*,*,#241,.T.);
#42=ORIENTED_EDGE('',*,*,#242,.T.);
#43=ORIENTED_EDGE('',*,*,#243,.F.);
#44=ORIENTED_EDGE('',*,*,#244,.F.);
#45=ORIENTED_EDGE('',*,*,#234,.T.);
#46=ORIENTED_EDGE('',*,*,#245,.T.);
#47=ORIENTED_EDGE('',*,*,#246,.T.);
#48=ORIENTED_EDGE('',*,*,#247,.F.);
#49=ORIENTED_EDGE('',*,*,#248,.T.);
#50=ORIENTED_EDGE('',*,*,#249,.T.);
#51=ORIENTED_EDGE('',*,*,#222,.T.);
#52=ORIENTED_EDGE('',*,*,#250,.F.);
#53=ORIENTED_EDGE('',*,*,#251,.T.);
#54=ORIENTED_EDGE('',*,*,#252,.F.);
#55=ORIENTED_EDGE('',*,*,#253,.F.);
#56=ORIENTED_EDGE('',*,*,#254,.F.);
#57=ORIENTED_EDGE('',*,*,#255,.F.);
#58=ORIENTED_EDGE('',*,*,#256,.F.);
#59=ORIENTED_EDGE('',*,*,#257,.F.);
#60=ORIENTED_EDGE('',*,*,#258,.T.);
#61=ORIENTED_EDGE('',*,*,#259,.F.);
#62=ORIENTED_EDGE('',*,*,#260,.F.);
#63=ORIENTED_EDGE('',*,*,#261,.F.);
#64=ORIENTED_EDGE('',*,*,#262,.F.);
#65=ORIENTED_EDGE('',*,*,#263,.T.);
#66=ORIENTED_EDGE('',*,*,#264,.F.);
#67=ORIENTED_EDGE('',*,*,#226,.T.);
#68=ORIENTED_EDGE('',*,*,#265,.F.);
#69=ORIENTED_EDGE('',*,*,#266,.T.);
#70=ORIENTED_EDGE('',*,*,#267,.T.);
#71=ORIENTED_EDGE('',*,*,#268,.F.);
#72=ORIENTED_EDGE('',*,*,#269,.F.);
#73=ORIENTED_EDGE('',*,*,#265,.T.);
#74=ORIENTED_EDGE('',*,*,#270,.T.);
#75=ORIENTED_EDGE('',*,*,#241,.F.);
#76=ORIENTED_EDGE('',*,*,#266,.F.);
#77=ORIENTED_EDGE('',*,*,#269,.T.);
#78=ORIENTED_EDGE('',*,*,#240,.T.);
#79=ORIENTED_EDGE('',*,*,#271,.F.);
#80=ORIENTED_EDGE('',*,*,#267,.F.);
#81=ORIENTED_EDGE('',*,*,#271,.T.);
#82=ORIENTED_EDGE('',*,*,#243,.T.);
#83=ORIENTED_EDGE('',*,*,#272,.F.);
#84=ORIENTED_EDGE('',*,*,#270,.F.);
#85=ORIENTED_EDGE('',*,*,#268,.T.);
#86=ORIENTED_EDGE('',*,*,#272,.T.);
#87=ORIENTED_EDGE('',*,*,#242,.F.);
#88=ORIENTED_EDGE('',*,*,#239,.T.);
#89=ORIENTED_EDGE('',*,*,#273,.F.);
#90=ORIENTED_EDGE('',*,*,#238,.T.);
#91=ORIENTED_EDGE('',*,*,#274,.F.);
#92=ORIENTED_EDGE('',*,*,#275,.T.);
#93=ORIENTED_EDGE('',*,*,#276,.T.);
#94=ORIENTED_EDGE('',*,*,#250,.T.);
#95=ORIENTED_EDGE('',*,*,#221,.F.);
#96=ORIENTED_EDGE('',*,*,#277,.F.);
#97=ORIENTED_EDGE('',*,*,#278,.T.);
#98=ORIENTED_EDGE('',*,*,#254,.T.);
#99=ORIENTED_EDGE('',*,*,#279,.F.);
#100=ORIENTED_EDGE('',*,*,#280,.T.);
#101=ORIENTED_EDGE('',*,*,#281,.T.);
#102=ORIENTED_EDGE('',*,*,#255,.T.);
#103=ORIENTED_EDGE('',*,*,#278,.F.);
#104=ORIENTED_EDGE('',*,*,#282,.F.);
#105=ORIENTED_EDGE('',*,*,#283,.T.);
#106=ORIENTED_EDGE('',*,*,#259,.T.);
#107=ORIENTED_EDGE('',*,*,#284,.F.);
#108=ORIENTED_EDGE('',*,*,#285,.T.);
#109=ORIENTED_EDGE('',*,*,#286,.T.);
#110=ORIENTED_EDGE('',*,*,#260,.T.);
#111=ORIENTED_EDGE('',*,*,#283,.F.);
#112=ORIENTED_EDGE('',*,*,#287,.F.);
#113=ORIENTED_EDGE('',*,*,#227,.T.);
#114=ORIENTED_EDGE('',*,*,#264,.T.);
#115=ORIENTED_EDGE('',*,*,#288,.F.);
#116=ORIENTED_EDGE('',*,*,#263,.F.);
#117=ORIENTED_EDGE('',*,*,#289,.F.);
#118=ORIENTED_EDGE('',*,*,#290,.T.);
#119=ORIENTED_EDGE('',*,*,#288,.T.);
#120=ORIENTED_EDGE('',*,*,#262,.T.);
#121=ORIENTED_EDGE('',*,*,#291,.F.);
#122=ORIENTED_EDGE('',*,*,#292,.F.);
#123=ORIENTED_EDGE('',*,*,#289,.T.);
#124=ORIENTED_EDGE('',*,*,#261,.T.);
#125=ORIENTED_EDGE('',*,*,#286,.F.);
#126=ORIENTED_EDGE('',*,*,#293,.F.);
#127=ORIENTED_EDGE('',*,*,#291,.T.);
#128=ORIENTED_EDGE('',*,*,#285,.F.);
#129=ORIENTED_EDGE('',*,*,#290,.F.);
#130=ORIENTED_EDGE('',*,*,#292,.T.);
#131=ORIENTED_EDGE('',*,*,#293,.T.);
#132=ORIENTED_EDGE('',*,*,#258,.F.);
#133=ORIENTED_EDGE('',*,*,#294,.F.);
#134=ORIENTED_EDGE('',*,*,#295,.T.);
#135=ORIENTED_EDGE('',*,*,#284,.T.);
#136=ORIENTED_EDGE('',*,*,#257,.T.);
#137=ORIENTED_EDGE('',*,*,#296,.F.);
#138=ORIENTED_EDGE('',*,*,#297,.F.);
#139=ORIENTED_EDGE('',*,*,#294,.T.);
#140=ORIENTED_EDGE('',*,*,#256,.T.);
#141=ORIENTED_EDGE('',*,*,#281,.F.);
#142=ORIENTED_EDGE('',*,*,#298,.F.);
#143=ORIENTED_EDGE('',*,*,#296,.T.);
#144=ORIENTED_EDGE('',*,*,#280,.F.);
#145=ORIENTED_EDGE('',*,*,#295,.F.);
#146=ORIENTED_EDGE('',*,*,#297,.T.);
#147=ORIENTED_EDGE('',*,*,#298,.T.);
#148=ORIENTED_EDGE('',*,*,#253,.T.);
#149=ORIENTED_EDGE('',*,*,#299,.F.);
#150=ORIENTED_EDGE('',*,*,#300,.F.);
#151=ORIENTED_EDGE('',*,*,#279,.T.);
#152=ORIENTED_EDGE('',*,*,#252,.T.);
#153=ORIENTED_EDGE('',*,*,#301,.F.);
#154=ORIENTED_EDGE('',*,*,#302,.F.);
#155=ORIENTED_EDGE('',*,*,#299,.T.);
#156=ORIENTED_EDGE('',*,*,#251,.F.);
#157=ORIENTED_EDGE('',*,*,#276,.F.);
#158=ORIENTED_EDGE('',*,*,#303,.T.);
#159=ORIENTED_EDGE('',*,*,#301,.T.);
#160=ORIENTED_EDGE('',*,*,#275,.F.);
#161=ORIENTED_EDGE('',*,*,#300,.T.);
#162=ORIENTED_EDGE('',*,*,#302,.T.);
#163=ORIENTED_EDGE('',*,*,#303,.F.);
#164=ORIENTED_EDGE('',*,*,#248,.F.);
#165=ORIENTED_EDGE('',*,*,#304,.F.);
#166=ORIENTED_EDGE('',*,*,#305,.T.);
#167=ORIENTED_EDGE('',*,*,#306,.T.);
#168=ORIENTED_EDGE('',*,*,#247,.T.);
#169=ORIENTED_EDGE('',*,*,#225,.F.);
#170=ORIENTED_EDGE('',*,*,#307,.F.);
#171=ORIENTED_EDGE('',*,*,#304,.T.);
#172=ORIENTED_EDGE('',*,*,#249,.F.);
#173=ORIENTED_EDGE('',*,*,#306,.F.);
#174=ORIENTED_EDGE('',*,*,#308,.T.);
#175=ORIENTED_EDGE('',*,*,#223,.T.);
#176=ORIENTED_EDGE('',*,*,#305,.F.);
#177=ORIENTED_EDGE('',*,*,#307,.T.);
#178=ORIENTED_EDGE('',*,*,#224,.T.);
#179=ORIENTED_EDGE('',*,*,#308,.F.);
#180=ORIENTED_EDGE('',*,*,#244,.T.);
#181=ORIENTED_EDGE('',*,*,#309,.F.);
#182=ORIENTED_EDGE('',*,*,#310,.F.);
#183=ORIENTED_EDGE('',*,*,#235,.T.);
#184=ORIENTED_EDGE('',*,*,#311,.F.);
#185=ORIENTED_EDGE('',*,*,#312,.T.);
#186=ORIENTED_EDGE('',*,*,#309,.T.);
#187=ORIENTED_EDGE('',*,*,#246,.F.);
#188=ORIENTED_EDGE('',*,*,#233,.F.);
#189=ORIENTED_EDGE('',*,*,#313,.T.);
#190=ORIENTED_EDGE('',*,*,#311,.T.);
#191=ORIENTED_EDGE('',*,*,#245,.F.);
#192=ORIENTED_EDGE('',*,*,#237,.T.);
#193=ORIENTED_EDGE('',*,*,#314,.T.);
#194=ORIENTED_EDGE('',*,*,#219,.F.);
#195=ORIENTED_EDGE('',*,*,#315,.F.);
#196=ORIENTED_EDGE('',*,*,#229,.T.);
#197=ORIENTED_EDGE('',*,*,#316,.F.);
#198=ORIENTED_EDGE('',*,*,#231,.F.);
#199=ORIENTED_EDGE('',*,*,#317,.T.);
#200=ORIENTED_EDGE('',*,*,#230,.F.);
#201=ORIENTED_EDGE('',*,*,#315,.T.);
#202=ORIENTED_EDGE('',*,*,#218,.F.);
#203=ORIENTED_EDGE('',*,*,#317,.F.);
#204=ORIENTED_EDGE('',*,*,#273,.T.);
#205=ORIENTED_EDGE('',*,*,#274,.T.);
#206=ORIENTED_EDGE('',*,*,#314,.F.);
#207=ORIENTED_EDGE('',*,*,#236,.F.);
#208=ORIENTED_EDGE('',*,*,#310,.T.);
#209=ORIENTED_EDGE('',*,*,#312,.F.);
#210=ORIENTED_EDGE('',*,*,#313,.F.);
#211=ORIENTED_EDGE('',*,*,#232,.F.);
#212=ORIENTED_EDGE('',*,*,#316,.T.);
#213=ORIENTED_EDGE('',*,*,#228,.F.);
#214=ORIENTED_EDGE('',*,*,#287,.T.);
#215=ORIENTED_EDGE('',*,*,#282,.T.);
#216=ORIENTED_EDGE('',*,*,#277,.T.);
#217=ORIENTED_EDGE('',*,*,#220,.F.);
#218=EDGE_CURVE('',#318,#319,#386,.T.);
#219=EDGE_CURVE('',#319,#320,#387,.T.);
#220=EDGE_CURVE('',#320,#321,#388,.T.);
#221=EDGE_CURVE('',#321,#322,#389,.T.);
#222=EDGE_CURVE('',#323,#322,#390,.T.);
#223=EDGE_CURVE('',#324,#323,#391,.T.);
#224=EDGE_CURVE('',#325,#324,#392,.T.);
#225=EDGE_CURVE('',#325,#326,#393,.T.);
#226=EDGE_CURVE('',#327,#326,#394,.T.);
#227=EDGE_CURVE('',#328,#327,#395,.T.);
#228=EDGE_CURVE('',#328,#329,#396,.T.);
#229=EDGE_CURVE('',#318,#329,#397,.T.);
#230=EDGE_CURVE('',#330,#331,#398,.T.);
#231=EDGE_CURVE('',#331,#332,#399,.T.);
#232=EDGE_CURVE('',#332,#333,#400,.T.);
#233=EDGE_CURVE('',#333,#334,#401,.T.);
#234=EDGE_CURVE('',#335,#334,#402,.T.);
#235=EDGE_CURVE('',#336,#335,#403,.T.);
#236=EDGE_CURVE('',#336,#337,#404,.T.);
#237=EDGE_CURVE('',#330,#337,#405,.T.);
#238=EDGE_CURVE('',#338,#338,#14,.T.);
#239=EDGE_CURVE('',#339,#339,#15,.T.);
#240=EDGE_CURVE('',#340,#341,#406,.T.);
#241=EDGE_CURVE('',#340,#342,#407,.T.);
#242=EDGE_CURVE('',#342,#343,#408,.T.);
#243=EDGE_CURVE('',#341,#343,#409,.T.);
#244=EDGE_CURVE('',#335,#344,#410,.T.);
#245=EDGE_CURVE('',#334,#345,#411,.T.);
#246=EDGE_CURVE('',#345,#344,#412,.T.);
#247=EDGE_CURVE('',#346,#326,#413,.T.);
#248=EDGE_CURVE('',#346,#347,#414,.T.);
#249=EDGE_CURVE('',#347,#323,#415,.T.);
#250=EDGE_CURVE('',#348,#322,#416,.T.);
#251=EDGE_CURVE('',#348,#349,#417,.T.);
#252=EDGE_CURVE('',#350,#349,#418,.T.);
#253=EDGE_CURVE('',#351,#350,#419,.T.);
#254=EDGE_CURVE('',#352,#351,#420,.T.);
#255=EDGE_CURVE('',#353,#352,#421,.T.);
#256=EDGE_CURVE('',#354,#353,#422,.T.);
#257=EDGE_CURVE('',#355,#354,#423,.T.);
#258=EDGE_CURVE('',#355,#356,#424,.T.);
#259=EDGE_CURVE('',#357,#356,#425,.T.);
#260=EDGE_CURVE('',#358,#357,#426,.T.);
#261=EDGE_CURVE('',#359,#358,#427,.T.);
#262=EDGE_CURVE('',#360,#359,#428,.T.);
#263=EDGE_CURVE('',#360,#361,#429,.T.);
#264=EDGE_CURVE('',#327,#361,#430,.T.);
#265=EDGE_CURVE('',#362,#363,#431,.T.);
#266=EDGE_CURVE('',#362,#364,#432,.T.);
#267=EDGE_CURVE('',#364,#365,#433,.T.);
#268=EDGE_CURVE('',#363,#365,#434,.T.);
#269=EDGE_CURVE('',#362,#340,#435,.T.);
#270=EDGE_CURVE('',#363,#342,#436,.T.);
#271=EDGE_CURVE('',#364,#341,#437,.T.);
#272=EDGE_CURVE('',#365,#343,#438,.T.);
#273=EDGE_CURVE('',#366,#366,#16,.T.);
#274=EDGE_CURVE('',#367,#367,#17,.T.);
#275=EDGE_CURVE('',#368,#369,#439,.T.);
#276=EDGE_CURVE('',#369,#348,#440,.T.);
#277=EDGE_CURVE('',#370,#321,#441,.T.);
#278=EDGE_CURVE('',#370,#352,#442,.T.);
#279=EDGE_CURVE('',#368,#351,#443,.T.);
#280=EDGE_CURVE('',#371,#372,#444,.T.);
#281=EDGE_CURVE('',#372,#353,#445,.T.);
#282=EDGE_CURVE('',#373,#370,#446,.T.);
#283=EDGE_CURVE('',#373,#357,#447,.T.);
#284=EDGE_CURVE('',#371,#356,#448,.T.);
#285=EDGE_CURVE('',#374,#375,#449,.T.);
#286=EDGE_CURVE('',#375,#358,#450,.T.);
#287=EDGE_CURVE('',#328,#373,#451,.T.);
#288=EDGE_CURVE('',#374,#361,#452,.T.);
#289=EDGE_CURVE('',#376,#360,#453,.T.);
#290=EDGE_CURVE('',#376,#374,#454,.T.);
#291=EDGE_CURVE('',#377,#359,#455,.T.);
#292=EDGE_CURVE('',#376,#377,#456,.T.);
#293=EDGE_CURVE('',#377,#375,#457,.T.);
#294=EDGE_CURVE('',#378,#355,#458,.T.);
#295=EDGE_CURVE('',#378,#371,#459,.T.);
#296=EDGE_CURVE('',#379,#354,#460,.T.);
#297=EDGE_CURVE('',#378,#379,#461,.T.);
#298=EDGE_CURVE('',#379,#372,#462,.T.);
#299=EDGE_CURVE('',#380,#350,#463,.T.);
#300=EDGE_CURVE('',#368,#380,#464,.T.);
#301=EDGE_CURVE('',#381,#349,#465,.T.);
#302=EDGE_CURVE('',#380,#381,#466,.T.);
#303=EDGE_CURVE('',#369,#381,#467,.T.);
#304=EDGE_CURVE('',#382,#346,#468,.T.);
#305=EDGE_CURVE('',#382,#383,#469,.T.);
#306=EDGE_CURVE('',#383,#347,#470,.T.);
#307=EDGE_CURVE('',#382,#325,#471,.T.);
#308=EDGE_CURVE('',#383,#324,#472,.T.);
#309=EDGE_CURVE('',#384,#344,#473,.T.);
#310=EDGE_CURVE('',#336,#384,#474,.T.);
#311=EDGE_CURVE('',#385,#345,#475,.T.);
#312=EDGE_CURVE('',#385,#384,#476,.T.);
#313=EDGE_CURVE('',#333,#385,#477,.T.);
#314=EDGE_CURVE('',#337,#320,#478,.T.);
#315=EDGE_CURVE('',#330,#319,#479,.T.);
#316=EDGE_CURVE('',#332,#329,#480,.T.);
#317=EDGE_CURVE('',#331,#318,#481,.T.);
#318=VERTEX_POINT('',#970);
#319=VERTEX_POINT('',#971);
#320=VERTEX_POINT('',#973);
#321=VERTEX_POINT('',#975);
#322=VERTEX_POINT('',#977);
#323=VERTEX_POINT('',#979);
#324=VERTEX_POINT('',#981);
#325=VERTEX_POINT('',#983);
#326=VERTEX_POINT('',#985);
#327=VERTEX_POINT('',#987);
#328=VERTEX_POINT('',#989);
#329=VERTEX_POINT('',#991);
#330=VERTEX_POINT('',#995);
#331=VERTEX_POINT('',#996);
#332=VERTEX_POINT('',#998);
#333=VERTEX_POINT('',#1000);
#334=VERTEX_POINT('',#1002);
#335=VERTEX_POINT('',#1004);
#336=VERTEX_POINT('',#1006);
#337=VERTEX_POINT('',#1008);
#338=VERTEX_POINT('',#1012);
#339=VERTEX_POINT('',#1014);
#340=VERTEX_POINT('',#1016);
#341=VERTEX_POINT('',#1017);
#342=VERTEX_POINT('',#1019);
#343=VERTEX_POINT('',#1021);
#344=VERTEX_POINT('',#1024);
#345=VERTEX_POINT('',#1026);
#346=VERTEX_POINT('',#1030);
#347=VERTEX_POINT('',#1032);
#348=VERTEX_POINT('',#1035);
#349=VERTEX_POINT('',#1037);
#350=VERTEX_POINT('',#1039);
#351=VERTEX_POINT('',#1041);
#352=VERTEX_POINT('',#1043);
#353=VERTEX_POINT('',#1045);
#354=VERTEX_POINT('',#1047);
#355=VERTEX_POINT('',#1049);
#356=VERTEX_POINT('',#1051);
#357=VERTEX_POINT('',#1053);
#358=VERTEX_POINT('',#1055);
#359=VERTEX_POINT('',#1057);
#360=VERTEX_POINT('',#1059);
#361=VERTEX_POINT('',#1061);
#362=VERTEX_POINT('',#1064);
#363=VERTEX_POINT('',#1065);
#364=VERTEX_POINT('',#1067);
#365=VERTEX_POINT('',#1069);
#366=VERTEX_POINT('',#1081);
#367=VERTEX_POINT('',#1084);
#368=VERTEX_POINT('',#1087);
#369=VERTEX_POINT('',#1088);
#370=VERTEX_POINT('',#1091);
#371=VERTEX_POINT('',#1096);
#372=VERTEX_POINT('',#1097);
#373=VERTEX_POINT('',#1100);
#374=VERTEX_POINT('',#1105);
#375=VERTEX_POINT('',#1106);
#376=VERTEX_POINT('',#1112);
#377=VERTEX_POINT('',#1116);
#378=VERTEX_POINT('',#1123);
#379=VERTEX_POINT('',#1127);
#380=VERTEX_POINT('',#1134);
#381=VERTEX_POINT('',#1138);
#382=VERTEX_POINT('',#1145);
#383=VERTEX_POINT('',#1147);
#384=VERTEX_POINT('',#1156);
#385=VERTEX_POINT('',#1160);
#386=LINE('',#969,#482);
#387=LINE('',#972,#483);
#388=LINE('',#974,#484);
#389=LINE('',#976,#485);
#390=LINE('',#978,#486);
#391=LINE('',#980,#487);
#392=LINE('',#982,#488);
#393=LINE('',#984,#489);
#394=LINE('',#986,#490);
#395=LINE('',#988,#491);
#396=LINE('',#990,#492);
#397=LINE('',#992,#493);
#398=LINE('',#994,#494);
#399=LINE('',#997,#495);
#400=LINE('',#999,#496);
#401=LINE('',#1001,#497);
#402=LINE('',#1003,#498);
#403=LINE('',#1005,#499);
#404=LINE('',#1007,#500);
#405=LINE('',#1009,#501);
#406=LINE('',#1015,#502);
#407=LINE('',#1018,#503);
#408=LINE('',#1020,#504);
#409=LINE('',#1022,#505);
#410=LINE('',#1023,#506);
#411=LINE('',#1025,#507);
#412=LINE('',#1027,#508);
#413=LINE('',#1029,#509);
#414=LINE('',#1031,#510);
#415=LINE('',#1033,#511);
#416=LINE('',#1034,#512);
#417=LINE('',#1036,#513);
#418=LINE('',#1038,#514);
#419=LINE('',#1040,#515);
#420=LINE('',#1042,#516);
#421=LINE('',#1044,#517);
#422=LINE('',#1046,#518);
#423=LINE('',#1048,#519);
#424=LINE('',#1050,#520);
#425=LINE('',#1052,#521);
#426=LINE('',#1054,#522);
#427=LINE('',#1056,#523);
#428=LINE('',#1058,#524);
#429=LINE('',#1060,#525);
#430=LINE('',#1062,#526);
#431=LINE('',#1063,#527);
#432=LINE('',#1066,#528);
#433=LINE('',#1068,#529);
#434=LINE('',#1070,#530);
#435=LINE('',#1072,#531);
#436=LINE('',#1073,#532);
#437=LINE('',#1075,#533);
#438=LINE('',#1077,#534);
#439=LINE('',#1086,#535);
#440=LINE('',#1089,#536);
#441=LINE('',#1090,#537);
#442=LINE('',#1092,#538);
#443=LINE('',#1093,#539);
#444=LINE('',#1095,#540);
#445=LINE('',#1098,#541);
#446=LINE('',#1099,#542);
#447=LINE('',#1101,#543);
#448=LINE('',#1102,#544);
#449=LINE('',#1104,#545);
#450=LINE('',#1107,#546);
#451=LINE('',#1108,#547);
#452=LINE('',#1109,#548);
#453=LINE('',#1111,#549);
#454=LINE('',#1113,#550);
#455=LINE('',#1115,#551);
#456=LINE('',#1117,#552);
#457=LINE('',#1119,#553);
#458=LINE('',#1122,#554);
#459=LINE('',#1124,#555);
#460=LINE('',#1126,#556);
#461=LINE('',#1128,#557);
#462=LINE('',#1130,#558);
#463=LINE('',#1133,#559);
#464=LINE('',#1135,#560);
#465=LINE('',#1137,#561);
#466=LINE('',#1139,#562);
#467=LINE('',#1141,#563);
#468=LINE('',#1144,#564);
#469=LINE('',#1146,#565);
#470=LINE('',#1148,#566);
#471=LINE('',#1150,#567);
#472=LINE('',#1152,#568);
#473=LINE('',#1155,#569);
#474=LINE('',#1157,#570);
#475=LINE('',#1159,#571);
#476=LINE('',#1161,#572);
#477=LINE('',#1163,#573);
#478=LINE('',#1165,#574);
#479=LINE('',#1166,#575);
#480=LINE('',#1168,#576);
#481=LINE('',#1169,#577);
#482=VECTOR('',#793,1.);
#483=VECTOR('',#794,1.);
#484=VECTOR('',#795,1.);
#485=VECTOR('',#796,1.);
#486=VECTOR('',#797,1.);
#487=VECTOR('',#798,1.);
#488=VECTOR('',#799,1.);
#489=VECTOR('',#800,1.);
#490=VECTOR('',#801,1.);
#491=VECTOR('',#802,1.);
#492=VECTOR('',#803,1.);
#493=VECTOR('',#804,1.);
#494=VECTOR('',#807,1.);
#495=VECTOR('',#808,1.);
#496=VECTOR('',#809,1.);
#497=VECTOR('',#810,1.);
#498=VECTOR('',#811,1.);
#499=VECTOR('',#812,1.);
#500=VECTOR('',#813,1.);
#501=VECTOR('',#814,1.);
#502=VECTOR('',#821,1.);
#503=VECTOR('',#822,1.);
#504=VECTOR('',#823,1.);
#505=VECTOR('',#824,1.);
#506=VECTOR('',#825,1.);
#507=VECTOR('',#826,1.);
#508=VECTOR('',#827,1.);
#509=VECTOR('',#830,1.);
#510=VECTOR('',#831,1.);
#511=VECTOR('',#832,1.);
#512=VECTOR('',#833,1.);
#513=VECTOR('',#834,1.);
#514=VECTOR('',#835,1.);
#515=VECTOR('',#836,1.);
#516=VECTOR('',#837,1.);
#517=VECTOR('',#838,1.);
#518=VECTOR('',#839,1.);
#519=VECTOR('',#840,1.);
#520=VECTOR('',#841,1.);
#521=VECTOR('',#842,1.);
#522=VECTOR('',#843,1.);
#523=VECTOR('',#844,1.);
#524=VECTOR('',#845,1.);
#525=VECTOR('',#846,1.);
#526=VECTOR('',#847,1.);
#527=VECTOR('',#848,1.);
#528=VECTOR('',#849,1.);
#529=VECTOR('',#850,1.);
#530=VECTOR('',#851,1.);
#531=VECTOR('',#854,1.);
#532=VECTOR('',#855,1.);
#533=VECTOR('',#858,1.);
#534=VECTOR('',#861,1.);
#535=VECTOR('',#874,1.);
#536=VECTOR('',#875,1.);
#537=VECTOR('',#876,1.);
#538=VECTOR('',#877,1.);
#539=VECTOR('',#878,1.);
#540=VECTOR('',#881,1.);
#541=VECTOR('',#882,1.);
#542=VECTOR('',#883,1.);
#543=VECTOR('',#884,1.);
#544=VECTOR('',#885,1.);
#545=VECTOR('',#888,1.);
#546=VECTOR('',#889,1.);
#547=VECTOR('',#890,1.);
#548=VECTOR('',#891,1.);
#549=VECTOR('',#894,1.);
#550=VECTOR('',#895,1.);
#551=VECTOR('',#898,1.);
#552=VECTOR('',#899,1.);
#553=VECTOR('',#902,1.);
#554=VECTOR('',#907,1.);
#555=VECTOR('',#908,1.);
#556=VECTOR('',#911,1.);
#557=VECTOR('',#912,1.);
#558=VECTOR('',#915,1.);
#559=VECTOR('',#920,1.);
#560=VECTOR('',#921,1.);
#561=VECTOR('',#924,1.);
#562=VECTOR('',#925,1.);
#563=VECTOR('',#928,1.);
#564=VECTOR('',#933,1.);
#565=VECTOR('',#934,1.);
#566=VECTOR('',#935,1.);
#567=VECTOR('',#938,1.);
#568=VECTOR('',#941,1.);
#569=VECTOR('',#946,1.);
#570=VECTOR('',#947,1.);
#571=VECTOR('',#950,1.);
#572=VECTOR('',#951,1.);
#573=VECTOR('',#954,1.);
#574=VECTOR('',#957,1.);
#575=VECTOR('',#958,1.);
#576=VECTOR('',#961,1.);
#577=VECTOR('',#962,1.);
#578=EDGE_LOOP('',(#18,#19,#20,#21,#22,#23,#24,#25,#26,#27,#28,#29));
#579=EDGE_LOOP('',(#30,#31,#32,#33,#34,#35,#36,#37));
#580=EDGE_LOOP('',(#38));
#581=EDGE_LOOP('',(#39));
#582=EDGE_LOOP('',(#40,#41,#42,#43));
#583=EDGE_LOOP('',(#44,#45,#46,#47));
#584=EDGE_LOOP('',(#48,#49,#50,#51,#52,#53,#54,#55,#56,#57,#58,#59,#60,
#61,#62,#63,#64,#65,#66,#67));
#585=EDGE_LOOP('',(#68,#69,#70,#71));
#586=EDGE_LOOP('',(#72,#73,#74,#75));
#587=EDGE_LOOP('',(#76,#77,#78,#79));
#588=EDGE_LOOP('',(#80,#81,#82,#83));
#589=EDGE_LOOP('',(#84,#85,#86,#87));
#590=EDGE_LOOP('',(#88));
#591=EDGE_LOOP('',(#89));
#592=EDGE_LOOP('',(#90));
#593=EDGE_LOOP('',(#91));
#594=EDGE_LOOP('',(#92,#93,#94,#95,#96,#97,#98,#99));
#595=EDGE_LOOP('',(#100,#101,#102,#103,#104,#105,#106,#107));
#596=EDGE_LOOP('',(#108,#109,#110,#111,#112,#113,#114,#115));
#597=EDGE_LOOP('',(#116,#117,#118,#119));
#598=EDGE_LOOP('',(#120,#121,#122,#123));
#599=EDGE_LOOP('',(#124,#125,#126,#127));
#600=EDGE_LOOP('',(#128,#129,#130,#131));
#601=EDGE_LOOP('',(#132,#133,#134,#135));
#602=EDGE_LOOP('',(#136,#137,#138,#139));
#603=EDGE_LOOP('',(#140,#141,#142,#143));
#604=EDGE_LOOP('',(#144,#145,#146,#147));
#605=EDGE_LOOP('',(#148,#149,#150,#151));
#606=EDGE_LOOP('',(#152,#153,#154,#155));
#607=EDGE_LOOP('',(#156,#157,#158,#159));
#608=EDGE_LOOP('',(#160,#161,#162,#163));
#609=EDGE_LOOP('',(#164,#165,#166,#167));
#610=EDGE_LOOP('',(#168,#169,#170,#171));
#611=EDGE_LOOP('',(#172,#173,#174,#175));
#612=EDGE_LOOP('',(#176,#177,#178,#179));
#613=EDGE_LOOP('',(#180,#181,#182,#183));
#614=EDGE_LOOP('',(#184,#185,#186,#187));
#615=EDGE_LOOP('',(#188,#189,#190,#191));
#616=EDGE_LOOP('',(#192,#193,#194,#195));
#617=EDGE_LOOP('',(#196,#197,#198,#199));
#618=EDGE_LOOP('',(#200,#201,#202,#203));
#619=EDGE_LOOP('',(#204));
#620=EDGE_LOOP('',(#205));
#621=EDGE_LOOP('',(#206,#207,#208,#209,#210,#211,#212,#213,#214,#215,#216,
#217));
#622=FACE_BOUND('',#578,.T.);
#623=FACE_BOUND('',#579,.T.);
#624=FACE_BOUND('',#580,.T.);
#625=FACE_BOUND('',#581,.T.);
#626=FACE_BOUND('',#582,.T.);
#627=FACE_BOUND('',#583,.T.);
#628=FACE_BOUND('',#584,.T.);
#629=FACE_BOUND('',#585,.T.);
#630=FACE_BOUND('',#586,.T.);
#631=FACE_BOUND('',#587,.T.);
#632=FACE_BOUND('',#588,.T.);
#633=FACE_BOUND('',#589,.T.);
#634=FACE_BOUND('',#590,.T.);
#635=FACE_BOUND('',#591,.T.);
#636=FACE_BOUND('',#592,.T.);
#637=FACE_BOUND('',#593,.T.);
#638=FACE_BOUND('',#594,.T.);
#639=FACE_BOUND('',#595,.T.);
#640=FACE_BOUND('',#596,.T.);
#641=FACE_BOUND('',#597,.T.);
#642=FACE_BOUND('',#598,.T.);
#643=FACE_BOUND('',#599,.T.);
#644=FACE_BOUND('',#600,.T.);
#645=FACE_BOUND('',#601,.T.);
#646=FACE_BOUND('',#602,.T.);
#647=FACE_BOUND('',#603,.T.);
#648=FACE_BOUND('',#604,.T.);
#649=FACE_BOUND('',#605,.T.);
#650=FACE_BOUND('',#606,.T.);
#651=FACE_BOUND('',#607,.T.);
#652=FACE_BOUND('',#608,.T.);
#653=FACE_BOUND('',#609,.T.);
#654=FACE_BOUND('',#610,.T.);
#655=FACE_BOUND('',#611,.T.);
#656=FACE_BOUND('',#612,.T.);
#657=FACE_BOUND('',#613,.T.);
#658=FACE_BOUND('',#614,.T.);
#659=FACE_BOUND('',#615,.T.);
#660=FACE_BOUND('',#616,.T.);
#661=FACE_BOUND('',#617,.T.);
#662=FACE_BOUND('',#618,.T.);
#663=FACE_BOUND('',#619,.T.);
#664=FACE_BOUND('',#620,.T.);
#665=FACE_BOUND('',#621,.T.);
#666=PLANE('',#749);
#667=PLANE('',#750);
#668=PLANE('',#751);
#669=PLANE('',#754);
#670=PLANE('',#755);
#671=PLANE('',#756);
#672=PLANE('',#757);
#673=PLANE('',#758);
#674=PLANE('',#763);
#675=PLANE('',#764);
#676=PLANE('',#765);
#677=PLANE('',#766);
#678=PLANE('',#767);
#679=PLANE('',#768);
#680=PLANE('',#769);
#681=PLANE('',#770);
#682=PLANE('',#771);
#683=PLANE('',#772);
#684=PLANE('',#773);
#685=PLANE('',#774);
#686=PLANE('',#775);
#687=PLANE('',#776);
#688=PLANE('',#777);
#689=PLANE('',#778);
#690=PLANE('',#779);
#691=PLANE('',#780);
#692=PLANE('',#781);
#693=PLANE('',#782);
#694=PLANE('',#783);
#695=PLANE('',#784);
#696=PLANE('',#785);
#697=PLANE('',#786);
#698=PLANE('',#787);
#699=PLANE('',#788);
#700=ADVANCED_FACE('',(#622),#666,.T.);
#701=ADVANCED_FACE('',(#623),#667,.T.);
#702=ADVANCED_FACE('',(#624,#625,#626,#627),#668,.T.);
#703=ADVANCED_FACE('',(#628,#629),#669,.T.);
#704=ADVANCED_FACE('',(#630),#670,.T.);
#705=ADVANCED_FACE('',(#631),#671,.F.);
#706=ADVANCED_FACE('',(#632),#672,.F.);
#707=ADVANCED_FACE('',(#633),#673,.T.);
#708=ADVANCED_FACE('',(#634,#635),#12,.F.);
#709=ADVANCED_FACE('',(#636,#637),#13,.F.);
#710=ADVANCED_FACE('',(#638),#674,.F.);
#711=ADVANCED_FACE('',(#639),#675,.F.);
#712=ADVANCED_FACE('',(#640),#676,.F.);
#713=ADVANCED_FACE('',(#641),#677,.T.);
#714=ADVANCED_FACE('',(#642),#678,.F.);
#715=ADVANCED_FACE('',(#643),#679,.F.);
#716=ADVANCED_FACE('',(#644),#680,.T.);
#717=ADVANCED_FACE('',(#645),#681,.T.);
#718=ADVANCED_FACE('',(#646),#682,.F.);
#719=ADVANCED_FACE('',(#647),#683,.F.);
#720=ADVANCED_FACE('',(#648),#684,.T.);
#721=ADVANCED_FACE('',(#649),#685,.F.);
#722=ADVANCED_FACE('',(#650),#686,.F.);
#723=ADVANCED_FACE('',(#651),#687,.T.);
#724=ADVANCED_FACE('',(#652),#688,.T.);
#725=ADVANCED_FACE('',(#653),#689,.T.);
#726=ADVANCED_FACE('',(#654),#690,.F.);
#727=ADVANCED_FACE('',(#655),#691,.T.);
#728=ADVANCED_FACE('',(#656),#692,.T.);
#729=ADVANCED_FACE('',(#657),#693,.F.);
#730=ADVANCED_FACE('',(#658),#694,.T.);
#731=ADVANCED_FACE('',(#659),#695,.T.);
#732=ADVANCED_FACE('',(#660),#696,.F.);
#733=ADVANCED_FACE('',(#661),#697,.T.);
#734=ADVANCED_FACE('',(#662),#698,.T.);
#735=ADVANCED_FACE('',(#663,#664,#665),#699,.F.);
#736=CLOSED_SHELL('',(#700,#701,#702,#703,#704,#705,#706,#707,#708,#709,
#710,#711,#712,#713,#714,#715,#716,#717,#718,#719,#720,#721,#722,#723,#724,
#725,#726,#727,#728,#729,#730,#731,#732,#733,#734,#735));
#737=STYLED_ITEM('',(#738),#745);
#738=PRESENTATION_STYLE_ASSIGNMENT((#739));
#739=SURFACE_STYLE_USAGE(.BOTH.,#740);
#740=SURFACE_SIDE_STYLE('',(#741));
#741=SURFACE_STYLE_FILL_AREA(#742);
#742=FILL_AREA_STYLE('',(#743));
#743=FILL_AREA_STYLE_COLOUR('',#744);
#744=COLOUR_RGB('',0.615686274509804,0.811764705882353,0.929411764705882);
#745=MANIFOLD_SOLID_BREP('Part 1',#736);
#746=SHAPE_DEFINITION_REPRESENTATION(#1178,#747);
#747=SHAPE_REPRESENTATION('Part 1',(#748),#1173);
#748=AXIS2_PLACEMENT_3D('',#967,#789,#790);
#749=AXIS2_PLACEMENT_3D('',#968,#791,#792);
#750=AXIS2_PLACEMENT_3D('',#993,#805,#806);
#751=AXIS2_PLACEMENT_3D('',#1010,#815,#816);
#752=AXIS2_PLACEMENT_3D('',#1011,#817,#818);
#753=AXIS2_PLACEMENT_3D('',#1013,#819,#820);
#754=AXIS2_PLACEMENT_3D('',#1028,#828,#829);
#755=AXIS2_PLACEMENT_3D('',#1071,#852,#853);
#756=AXIS2_PLACEMENT_3D('',#1074,#856,#857);
#757=AXIS2_PLACEMENT_3D('',#1076,#859,#860);
#758=AXIS2_PLACEMENT_3D('',#1078,#862,#863);
#759=AXIS2_PLACEMENT_3D('',#1079,#864,#865);
#760=AXIS2_PLACEMENT_3D('',#1080,#866,#867);
#761=AXIS2_PLACEMENT_3D('',#1082,#868,#869);
#762=AXIS2_PLACEMENT_3D('',#1083,#870,#871);
#763=AXIS2_PLACEMENT_3D('',#1085,#872,#873);
#764=AXIS2_PLACEMENT_3D('',#1094,#879,#880);
#765=AXIS2_PLACEMENT_3D('',#1103,#886,#887);
#766=AXIS2_PLACEMENT_3D('',#1110,#892,#893);
#767=AXIS2_PLACEMENT_3D('',#1114,#896,#897);
#768=AXIS2_PLACEMENT_3D('',#1118,#900,#901);
#769=AXIS2_PLACEMENT_3D('',#1120,#903,#904);
#770=AXIS2_PLACEMENT_3D('',#1121,#905,#906);
#771=AXIS2_PLACEMENT_3D('',#1125,#909,#910);
#772=AXIS2_PLACEMENT_3D('',#1129,#913,#914);
#773=AXIS2_PLACEMENT_3D('',#1131,#916,#917);
#774=AXIS2_PLACEMENT_3D('',#1132,#918,#919);
#775=AXIS2_PLACEMENT_3D('',#1136,#922,#923);
#776=AXIS2_PLACEMENT_3D('',#1140,#926,#927);
#777=AXIS2_PLACEMENT_3D('',#1142,#929,#930);
#778=AXIS2_PLACEMENT_3D('',#1143,#931,#932);
#779=AXIS2_PLACEMENT_3D('',#1149,#936,#937);
#780=AXIS2_PLACEMENT_3D('',#1151,#939,#940);
#781=AXIS2_PLACEMENT_3D('',#1153,#942,#943);
#782=AXIS2_PLACEMENT_3D('',#1154,#944,#945);
#783=AXIS2_PLACEMENT_3D('',#1158,#948,#949);
#784=AXIS2_PLACEMENT_3D('',#1162,#952,#953);
#785=AXIS2_PLACEMENT_3D('',#1164,#955,#956);
#786=AXIS2_PLACEMENT_3D('',#1167,#959,#960);
#787=AXIS2_PLACEMENT_3D('',#1170,#963,#964);
#788=AXIS2_PLACEMENT_3D('',#1171,#965,#966);
#789=DIRECTION('',(0.,0.,1.));
#790=DIRECTION('',(1.,0.,0.));
#791=DIRECTION('',(1.,0.,0.));
#792=DIRECTION('',(0.,0.,-1.));
#793=DIRECTION('',(0.,1.,0.));
#794=DIRECTION('',(0.,0.,-1.));
#795=DIRECTION('',(0.,1.,0.));
#796=DIRECTION('',(0.,0.,1.));
#797=DIRECTION('',(0.,1.,0.));
#798=DIRECTION('',(0.,0.,1.));
#799=DIRECTION('',(0.,1.,0.));
#800=DIRECTION('',(0.,0.,1.));
#801=DIRECTION('',(0.,1.,0.));
#802=DIRECTION('',(0.,0.,1.));
#803=DIRECTION('',(0.,1.,0.));
#804=DIRECTION('',(0.,0.,-1.));
#805=DIRECTION('',(-1.,0.,0.));
#806=DIRECTION('',(0.,0.,1.));
#807=DIRECTION('',(0.,-1.,0.));
#808=DIRECTION('',(0.,0.,-1.));
#809=DIRECTION('',(0.,-1.,0.));
#810=DIRECTION('',(0.,0.,1.));
#811=DIRECTION('',(0.,-1.,0.));
#812=DIRECTION('',(0.,0.,1.));
#813=DIRECTION('',(0.,-1.,0.));
#814=DIRECTION('',(0.,0.,-1.));
#815=DIRECTION('',(0.,0.,1.));
#816=DIRECTION('',(1.,0.,0.));
#817=DIRECTION('',(0.,0.,1.));
#818=DIRECTION('',(1.,0.,0.));
#819=DIRECTION('',(0.,0.,1.));
#820=DIRECTION('',(1.,0.,0.));
#821=DIRECTION('',(-2.16840434497101E-16,1.,0.));
#822=DIRECTION('',(1.,0.,0.));
#823=DIRECTION('',(0.,1.,0.));
#824=DIRECTION('',(1.,0.,0.));
#825=DIRECTION('',(-1.,0.,0.));
#826=DIRECTION('',(-1.,-2.77555756156289E-16,0.));
#827=DIRECTION('',(0.,1.,0.));
#828=DIRECTION('',(0.,0.,1.));
#829=DIRECTION('',(1.,0.,0.));
#830=DIRECTION('',(0.514495755427527,-0.857492925712544,0.));
#831=DIRECTION('',(0.,1.,0.));
#832=DIRECTION('',(0.514495755427527,0.857492925712544,0.));
#833=DIRECTION('',(1.,0.,0.));
#834=DIRECTION('',(-0.857492925712544,-0.514495755427527,0.));
#835=DIRECTION('',(1.,0.,0.));
#836=DIRECTION('',(0.857492925712544,-0.514495755427527,0.));
#837=DIRECTION('',(1.,0.,0.));
#838=DIRECTION('',(0.,1.,0.));
#839=DIRECTION('',(-0.514495755427526,0.857492925712544,0.));
#840=DIRECTION('',(0.,1.,0.));
#841=DIRECTION('',(-0.514495755427527,-0.857492925712544,0.));
#842=DIRECTION('',(0.,1.,0.));
#843=DIRECTION('',(-1.,0.,0.));
#844=DIRECTION('',(-0.868403417425592,-0.495858351350013,0.));
#845=DIRECTION('',(-1.,0.,0.));
#846=DIRECTION('',(0.868403417425593,-0.495858351350011,0.));
#847=DIRECTION('',(-1.,0.,0.));
#848=DIRECTION('',(1.,0.,0.));
#849=DIRECTION('',(-2.16840434497101E-16,1.,0.));
#850=DIRECTION('',(1.,0.,0.));
#851=DIRECTION('',(0.,1.,0.));
#852=DIRECTION('',(0.,1.,0.));
#853=DIRECTION('',(0.,0.,1.));
#854=DIRECTION('',(0.,0.,-1.));
#855=DIRECTION('',(0.,0.,-1.));
#856=DIRECTION('',(-1.,-2.16840434497101E-16,0.));
#857=DIRECTION('',(2.16840434497101E-16,-1.,0.));
#858=DIRECTION('',(0.,0.,-1.));
#859=DIRECTION('',(0.,1.,0.));
#860=DIRECTION('',(0.,0.,1.));
#861=DIRECTION('',(0.,0.,-1.));
#862=DIRECTION('',(-1.,0.,0.));
#863=DIRECTION('',(0.,0.,1.));
#864=DIRECTION('',(0.,0.,1.));
#865=DIRECTION('',(1.,0.,0.));
#866=DIRECTION('',(0.,0.,1.));
#867=DIRECTION('',(1.,0.,0.));
#868=DIRECTION('',(0.,0.,1.));
#869=DIRECTION('',(1.,0.,0.));
#870=DIRECTION('',(0.,0.,1.));
#871=DIRECTION('',(1.,0.,0.));
#872=DIRECTION('',(0.,-1.,0.));
#873=DIRECTION('',(0.,0.,-1.));
#874=DIRECTION('',(1.,0.,0.));
#875=DIRECTION('',(0.,0.,1.));
#876=DIRECTION('',(1.,0.,0.));
#877=DIRECTION('',(0.,0.,1.));
#878=DIRECTION('',(0.,0.,1.));
#879=DIRECTION('',(1.,0.,0.));
#880=DIRECTION('',(0.,0.,-1.));
#881=DIRECTION('',(0.,1.,0.));
#882=DIRECTION('',(0.,0.,1.));
#883=DIRECTION('',(0.,1.,0.));
#884=DIRECTION('',(0.,0.,1.));
#885=DIRECTION('',(0.,0.,1.));
#886=DIRECTION('',(0.,1.,0.));
#887=DIRECTION('',(0.,0.,1.));
#888=DIRECTION('',(-1.,0.,0.));
#889=DIRECTION('',(0.,0.,1.));
#890=DIRECTION('',(-1.,0.,0.));
#891=DIRECTION('',(0.,0.,1.));
#892=DIRECTION('',(-0.495858351350011,-0.868403417425593,0.));
#893=DIRECTION('',(0.868403417425593,-0.495858351350011,0.));
#894=DIRECTION('',(0.,0.,1.));
#895=DIRECTION('',(0.868403417425593,-0.495858351350011,0.));
#896=DIRECTION('',(0.,1.,0.));
#897=DIRECTION('',(0.,0.,1.));
#898=DIRECTION('',(0.,0.,1.));
#899=DIRECTION('',(-1.,0.,0.));
#900=DIRECTION('',(-0.495858351350013,0.868403417425592,0.));
#901=DIRECTION('',(-0.868403417425592,-0.495858351350013,0.));
#902=DIRECTION('',(-0.868403417425592,-0.495858351350013,0.));
#903=DIRECTION('',(0.,0.,1.));
#904=DIRECTION('',(1.,0.,0.));
#905=DIRECTION('',(-0.857492925712544,0.514495755427527,0.));
#906=DIRECTION('',(-0.514495755427527,-0.857492925712544,0.));
#907=DIRECTION('',(0.,0.,1.));
#908=DIRECTION('',(-0.514495755427527,-0.857492925712544,0.));
#909=DIRECTION('',(1.,0.,0.));
#910=DIRECTION('',(0.,0.,-1.));
#911=DIRECTION('',(0.,0.,1.));
#912=DIRECTION('',(0.,1.,0.));
#913=DIRECTION('',(0.857492925712544,0.514495755427526,0.));
#914=DIRECTION('',(-0.514495755427526,0.857492925712544,0.));
#915=DIRECTION('',(-0.514495755427526,0.857492925712544,0.));
#916=DIRECTION('',(0.,0.,1.));
#917=DIRECTION('',(1.,0.,0.));
#918=DIRECTION('',(-0.514495755427527,-0.857492925712544,0.));
#919=DIRECTION('',(0.857492925712544,-0.514495755427527,0.));
#920=DIRECTION('',(0.,0.,1.));
#921=DIRECTION('',(0.857492925712544,-0.514495755427527,0.));
#922=DIRECTION('',(0.,-1.,0.));
#923=DIRECTION('',(0.,0.,-1.));
#924=DIRECTION('',(0.,0.,1.));
#925=DIRECTION('',(1.,0.,0.));
#926=DIRECTION('',(-0.514495755427527,0.857492925712544,0.));
#927=DIRECTION('',(-0.857492925712544,-0.514495755427527,0.));
#928=DIRECTION('',(-0.857492925712544,-0.514495755427527,0.));
#929=DIRECTION('',(0.,0.,1.));
#930=DIRECTION('',(1.,0.,0.));
#931=DIRECTION('',(1.,0.,0.));
#932=DIRECTION('',(0.,0.,-1.));
#933=DIRECTION('',(0.,0.,1.));
#934=DIRECTION('',(0.,1.,0.));
#935=DIRECTION('',(0.,0.,1.));
#936=DIRECTION('',(-0.857492925712544,-0.514495755427527,0.));
#937=DIRECTION('',(0.514495755427527,-0.857492925712544,0.));
#938=DIRECTION('',(0.514495755427527,-0.857492925712544,0.));
#939=DIRECTION('',(0.857492925712544,-0.514495755427527,0.));
#940=DIRECTION('',(0.514495755427527,0.857492925712544,0.));
#941=DIRECTION('',(0.514495755427527,0.857492925712544,0.));
#942=DIRECTION('',(0.,0.,1.));
#943=DIRECTION('',(1.,0.,0.));
#944=DIRECTION('',(0.,1.,0.));
#945=DIRECTION('',(0.,0.,1.));
#946=DIRECTION('',(0.,0.,1.));
#947=DIRECTION('',(-1.,0.,0.));
#948=DIRECTION('',(1.,0.,0.));
#949=DIRECTION('',(0.,0.,-1.));
#950=DIRECTION('',(0.,0.,1.));
#951=DIRECTION('',(0.,1.,0.));
#952=DIRECTION('',(-2.77555756156289E-16,1.,0.));
#953=DIRECTION('',(-1.,-2.77555756156289E-16,0.));
#954=DIRECTION('',(-1.,-2.77555756156289E-16,0.));
#955=DIRECTION('',(0.,1.,0.));
#956=DIRECTION('',(0.,0.,1.));
#957=DIRECTION('',(1.,0.,0.));
#958=DIRECTION('',(1.,0.,0.));
#959=DIRECTION('',(0.,1.,0.));
#960=DIRECTION('',(0.,0.,1.));
#961=DIRECTION('',(1.,0.,0.));
#962=DIRECTION('',(1.,0.,0.));
#963=DIRECTION('',(0.,0.,-1.));
#964=DIRECTION('',(1.,0.,0.));
#965=DIRECTION('',(0.,0.,1.));
#966=DIRECTION('',(1.,0.,0.));
#967=CARTESIAN_POINT('',(0.,0.,0.));
#968=CARTESIAN_POINT('',(0.358335,0.0625,-0.003));
#969=CARTESIAN_POINT('',(0.358335,0.0625,-0.001));
#970=CARTESIAN_POINT('',(0.358335,0.0432453,-0.001));
#971=CARTESIAN_POINT('',(0.358335,0.0532453,-0.001));
#972=CARTESIAN_POINT('',(0.358335,0.0532453,-0.001));
#973=CARTESIAN_POINT('',(0.358335,0.0532453,-0.005));
#974=CARTESIAN_POINT('',(0.358335,0.0625,-0.005));
#975=CARTESIAN_POINT('',(0.358335,0.1299153,-0.005));
#976=CARTESIAN_POINT('',(0.358335,0.1299153,-0.003));
#977=CARTESIAN_POINT('',(0.358335,0.1299153,0.00801));
#978=CARTESIAN_POINT('',(0.358335,0.0625,0.00801));
#979=CARTESIAN_POINT('',(0.358335,0.0762453,0.00801));
#980=CARTESIAN_POINT('',(0.358335,0.0762453,0.00351));
#981=CARTESIAN_POINT('',(0.358335,0.0762453,0.00351));
#982=CARTESIAN_POINT('',(0.358335,0.0625,0.00351));
#983=CARTESIAN_POINT('',(0.358335,0.0362453,0.00351));
#984=CARTESIAN_POINT('',(0.358335,0.0362453,0.00351));
#985=CARTESIAN_POINT('',(0.358335,0.0362453,0.00801));
#986=CARTESIAN_POINT('',(0.358335,0.0625,0.00801));
#987=CARTESIAN_POINT('',(0.358335,-0.004855,0.00801));
#988=CARTESIAN_POINT('',(0.358335,-0.004855,-0.003));
#989=CARTESIAN_POINT('',(0.358335,-0.004855,-0.005));
#990=CARTESIAN_POINT('',(0.358335,0.0625,-0.005));
#991=CARTESIAN_POINT('',(0.358335,0.0432453,-0.005));
#992=CARTESIAN_POINT('',(0.358335,0.0432453,-0.001));
#993=CARTESIAN_POINT('',(0.300335,0.0482453,-0.01699));
#994=CARTESIAN_POINT('',(0.300335,0.0625,-0.001));
#995=CARTESIAN_POINT('',(0.300335,0.0532453,-0.001));
#996=CARTESIAN_POINT('',(0.300335,0.0432453,-0.001));
#997=CARTESIAN_POINT('',(0.300335,0.0432453,-0.001));
#998=CARTESIAN_POINT('',(0.300335,0.0432453,-0.005));
#999=CARTESIAN_POINT('',(0.300335,0.0625,-0.005));
#1000=CARTESIAN_POINT('',(0.300335,0.0402453,-0.005));
#1001=CARTESIAN_POINT('',(0.300335,0.0402453,-0.01699));
#1002=CARTESIAN_POINT('',(0.300335,0.0402453,0.));
#1003=CARTESIAN_POINT('',(0.300335,0.0625,0.));
#1004=CARTESIAN_POINT('',(0.300335,0.0562453,0.));
#1005=CARTESIAN_POINT('',(0.300335,0.0562453,-0.01699));
#1006=CARTESIAN_POINT('',(0.300335,0.0562453,-0.005));
#1007=CARTESIAN_POINT('',(0.300335,0.0625,-0.005));
#1008=CARTESIAN_POINT('',(0.300335,0.0532453,-0.005));
#1009=CARTESIAN_POINT('',(0.300335,0.0532453,-0.001));
#1010=CARTESIAN_POINT('',(0.17675,0.0625,0.));
#1011=CARTESIAN_POINT('',(0.2805,0.028,0.));
#1012=CARTESIAN_POINT('',(0.2821,0.028,0.));
#1013=CARTESIAN_POINT('',(0.0285,0.114,0.));
#1014=CARTESIAN_POINT('',(0.0301,0.114,0.));
#1015=CARTESIAN_POINT('',(-0.001,-0.0005,0.));
#1016=CARTESIAN_POINT('',(-0.001,-0.001,0.));
#1017=CARTESIAN_POINT('',(-0.00100000000000003,0.126,0.));
#1018=CARTESIAN_POINT('',(0.13975,-0.001,0.));
#1019=CARTESIAN_POINT('',(0.3545,-0.000999999999999973,0.));
#1020=CARTESIAN_POINT('',(0.3545,0.0625,0.));
#1021=CARTESIAN_POINT('',(0.3545,0.126,0.));
#1022=CARTESIAN_POINT('',(0.17675,0.126,0.));
#1023=CARTESIAN_POINT('',(0.17675,0.0562453,0.));
#1024=CARTESIAN_POINT('',(0.275335,0.0562453,0.));
#1025=CARTESIAN_POINT('',(0.17675,0.0402453,0.));
#1026=CARTESIAN_POINT('',(0.275335,0.0402453,0.));
#1027=CARTESIAN_POINT('',(0.275335,0.0625,0.));
#1028=CARTESIAN_POINT('',(0.17675,0.0625,0.00801));
#1029=CARTESIAN_POINT('',(0.356835,0.0387453,0.00801));
#1030=CARTESIAN_POINT('',(0.355335,0.0412453,0.00801));
#1031=CARTESIAN_POINT('',(0.355335,0.0637453,0.00801));
#1032=CARTESIAN_POINT('',(0.355335,0.0712453,0.00801));
#1033=CARTESIAN_POINT('',(0.356835,0.0737453,0.00801));
#1034=CARTESIAN_POINT('',(0.17675,0.1299153,0.00801));
#1035=CARTESIAN_POINT('',(0.1966475,0.1299153,0.00801));
#1036=CARTESIAN_POINT('',(0.1941475,0.1284153,0.00801));
#1037=CARTESIAN_POINT('',(0.1916475,0.1269153,0.00801));
#1038=CARTESIAN_POINT('',(0.1841475,0.1269153,0.00801));
#1039=CARTESIAN_POINT('',(0.1616475,0.1269153,0.00801));
#1040=CARTESIAN_POINT('',(0.1591475,0.1284153,0.00801));
#1041=CARTESIAN_POINT('',(0.1566475,0.1299153,0.00801));
#1042=CARTESIAN_POINT('',(0.17675,0.1299153,0.00801));
#1043=CARTESIAN_POINT('',(-0.00504,0.1299153,0.00801));
#1044=CARTESIAN_POINT('',(-0.00504,0.064,0.00801));
#1045=CARTESIAN_POINT('',(-0.00504,0.08253015,0.00801));
#1046=CARTESIAN_POINT('',(-0.00354,0.08003015,0.00801));
#1047=CARTESIAN_POINT('',(-0.00204,0.07753015,0.00801));
#1048=CARTESIAN_POINT('',(-0.00204,0.07003015,0.00801));
#1049=CARTESIAN_POINT('',(-0.00204,0.04753015,0.00801));
#1050=CARTESIAN_POINT('',(-0.00354,0.04503015,0.00801));
#1051=CARTESIAN_POINT('',(-0.00504,0.04253015,0.00801));
#1052=CARTESIAN_POINT('',(-0.00504,0.064,0.00801));
#1053=CARTESIAN_POINT('',(-0.00504,-0.004855,0.00801));
#1054=CARTESIAN_POINT('',(-0.0025,-0.004855,0.00801));
#1055=CARTESIAN_POINT('',(0.1566475,-0.004855,0.00801));
#1056=CARTESIAN_POINT('',(0.1591475,-0.0034275,0.00801));
#1057=CARTESIAN_POINT('',(0.1616475,-0.002,0.00801));
#1058=CARTESIAN_POINT('',(0.1691475,-0.002,0.00801));
#1059=CARTESIAN_POINT('',(0.1916475,-0.002,0.00801));
#1060=CARTESIAN_POINT('',(0.1941475,-0.0034275,0.00801));
#1061=CARTESIAN_POINT('',(0.1966475,-0.004855,0.00801));
#1062=CARTESIAN_POINT('',(-0.0025,-0.004855,0.00801));
#1063=CARTESIAN_POINT('',(0.13975,-0.001,0.00801));
#1064=CARTESIAN_POINT('',(-0.001,-0.001,0.00801));
#1065=CARTESIAN_POINT('',(0.3545,-0.000999999999999973,0.00801));
#1066=CARTESIAN_POINT('',(-0.001,-0.0005,0.00801));
#1067=CARTESIAN_POINT('',(-0.00100000000000003,0.126,0.00801));
#1068=CARTESIAN_POINT('',(0.17675,0.126,0.00801));
#1069=CARTESIAN_POINT('',(0.3545,0.126,0.00801));
#1070=CARTESIAN_POINT('',(0.3545,0.0625,0.00801));
#1071=CARTESIAN_POINT('',(0.13975,-0.001,0.00751));
#1072=CARTESIAN_POINT('',(-0.001,-0.001,0.00751));
#1073=CARTESIAN_POINT('',(0.3545,-0.000999999999999973,0.00751));
#1074=CARTESIAN_POINT('',(-0.001,-0.0005,0.00751));
#1075=CARTESIAN_POINT('',(-0.00100000000000003,0.126,0.00751));
#1076=CARTESIAN_POINT('',(0.17675,0.126,0.00751));
#1077=CARTESIAN_POINT('',(0.3545,0.126,0.00751));
#1078=CARTESIAN_POINT('',(0.3545,0.0625,0.00751));
#1079=CARTESIAN_POINT('',(0.0285,0.114,-0.003));
#1080=CARTESIAN_POINT('',(0.0285,0.114,-0.005));
#1081=CARTESIAN_POINT('',(0.0301,0.114,-0.005));
#1082=CARTESIAN_POINT('',(0.2805,0.028,-0.003));
#1083=CARTESIAN_POINT('',(0.2805,0.028,-0.005));
#1084=CARTESIAN_POINT('',(0.2821,0.028,-0.005));
#1085=CARTESIAN_POINT('',(0.17675,0.1299153,-0.003));
#1086=CARTESIAN_POINT('',(0.17675,0.1299153,0.00351));
#1087=CARTESIAN_POINT('',(0.1566475,0.1299153,0.00351));
#1088=CARTESIAN_POINT('',(0.1966475,0.1299153,0.00351));
#1089=CARTESIAN_POINT('',(0.1966475,0.1299153,0.00351));
#1090=CARTESIAN_POINT('',(0.17675,0.1299153,-0.005));
#1091=CARTESIAN_POINT('',(-0.00504,0.1299153,-0.005));
#1092=CARTESIAN_POINT('',(-0.00504,0.1299153,-0.003));
#1093=CARTESIAN_POINT('',(0.1566475,0.1299153,0.00351));
#1094=CARTESIAN_POINT('',(-0.00504,0.064,-0.003));
#1095=CARTESIAN_POINT('',(-0.00504,0.064,0.00351));
#1096=CARTESIAN_POINT('',(-0.00504,0.04253015,0.00351));
#1097=CARTESIAN_POINT('',(-0.00504,0.08253015,0.00351));
#1098=CARTESIAN_POINT('',(-0.00504,0.08253015,0.00351));
#1099=CARTESIAN_POINT('',(-0.00504,0.064,-0.005));
#1100=CARTESIAN_POINT('',(-0.00504,-0.004855,-0.005));
#1101=CARTESIAN_POINT('',(-0.00504,-0.004855,-0.003));
#1102=CARTESIAN_POINT('',(-0.00504,0.04253015,0.00351));
#1103=CARTESIAN_POINT('',(-0.0025,-0.004855,-0.003));
#1104=CARTESIAN_POINT('',(-0.0025,-0.004855,0.00351));
#1105=CARTESIAN_POINT('',(0.1966475,-0.004855,0.00351));
#1106=CARTESIAN_POINT('',(0.1566475,-0.004855,0.00351));
#1107=CARTESIAN_POINT('',(0.1566475,-0.004855,0.00351));
#1108=CARTESIAN_POINT('',(-0.0025,-0.004855,-0.005));
#1109=CARTESIAN_POINT('',(0.1966475,-0.004855,0.00351));
#1110=CARTESIAN_POINT('',(0.1941475,-0.0034275,0.00351));
#1111=CARTESIAN_POINT('',(0.1916475,-0.002,0.00351));
#1112=CARTESIAN_POINT('',(0.1916475,-0.002,0.00351));
#1113=CARTESIAN_POINT('',(0.1941475,-0.0034275,0.00351));
#1114=CARTESIAN_POINT('',(0.1691475,-0.002,0.00351));
#1115=CARTESIAN_POINT('',(0.1616475,-0.002,0.00351));
#1116=CARTESIAN_POINT('',(0.1616475,-0.002,0.00351));
#1117=CARTESIAN_POINT('',(0.1691475,-0.002,0.00351));
#1118=CARTESIAN_POINT('',(0.1591475,-0.0034275,0.00351));
#1119=CARTESIAN_POINT('',(0.1591475,-0.0034275,0.00351));
#1120=CARTESIAN_POINT('',(0.1766475,0.06253015,0.00351));
#1121=CARTESIAN_POINT('',(-0.00354,0.04503015,0.00351));
#1122=CARTESIAN_POINT('',(-0.00204,0.04753015,0.00351));
#1123=CARTESIAN_POINT('',(-0.00204,0.04753015,0.00351));
#1124=CARTESIAN_POINT('',(-0.00354,0.04503015,0.00351));
#1125=CARTESIAN_POINT('',(-0.00204,0.07003015,0.00351));
#1126=CARTESIAN_POINT('',(-0.00204,0.07753015,0.00351));
#1127=CARTESIAN_POINT('',(-0.00204,0.07753015,0.00351));
#1128=CARTESIAN_POINT('',(-0.00204,0.07003015,0.00351));
#1129=CARTESIAN_POINT('',(-0.00354,0.08003015,0.00351));
#1130=CARTESIAN_POINT('',(-0.00354,0.08003015,0.00351));
#1131=CARTESIAN_POINT('',(0.1766475,0.06253015,0.00351));
#1132=CARTESIAN_POINT('',(0.1591475,0.1284153,0.00351));
#1133=CARTESIAN_POINT('',(0.1616475,0.1269153,0.00351));
#1134=CARTESIAN_POINT('',(0.1616475,0.1269153,0.00351));
#1135=CARTESIAN_POINT('',(0.1591475,0.1284153,0.00351));
#1136=CARTESIAN_POINT('',(0.1841475,0.1269153,0.00351));
#1137=CARTESIAN_POINT('',(0.1916475,0.1269153,0.00351));
#1138=CARTESIAN_POINT('',(0.1916475,0.1269153,0.00351));
#1139=CARTESIAN_POINT('',(0.1841475,0.1269153,0.00351));
#1140=CARTESIAN_POINT('',(0.1941475,0.1284153,0.00351));
#1141=CARTESIAN_POINT('',(0.1941475,0.1284153,0.00351));
#1142=CARTESIAN_POINT('',(0.1766475,0.06253015,0.00351));
#1143=CARTESIAN_POINT('',(0.355335,0.0637453,0.00351));
#1144=CARTESIAN_POINT('',(0.355335,0.0412453,0.00351));
#1145=CARTESIAN_POINT('',(0.355335,0.0412453,0.00351));
#1146=CARTESIAN_POINT('',(0.355335,0.0637453,0.00351));
#1147=CARTESIAN_POINT('',(0.355335,0.0712453,0.00351));
#1148=CARTESIAN_POINT('',(0.355335,0.0712453,0.00351));
#1149=CARTESIAN_POINT('',(0.356835,0.0387453,0.00351));
#1150=CARTESIAN_POINT('',(0.356835,0.0387453,0.00351));
#1151=CARTESIAN_POINT('',(0.356835,0.0737453,0.00351));
#1152=CARTESIAN_POINT('',(0.356835,0.0737453,0.00351));
#1153=CARTESIAN_POINT('',(0.1766475,0.06253015,0.00351));
#1154=CARTESIAN_POINT('',(0.287835,0.0562453,-0.01699));
#1155=CARTESIAN_POINT('',(0.275335,0.0562453,-0.01699));
#1156=CARTESIAN_POINT('',(0.275335,0.0562453,-0.005));
#1157=CARTESIAN_POINT('',(0.17675,0.0562453,-0.005));
#1158=CARTESIAN_POINT('',(0.275335,0.0482453,-0.01699));
#1159=CARTESIAN_POINT('',(0.275335,0.0402453,-0.01699));
#1160=CARTESIAN_POINT('',(0.275335,0.0402453,-0.005));
#1161=CARTESIAN_POINT('',(0.275335,0.0625,-0.005));
#1162=CARTESIAN_POINT('',(0.287835,0.0402453,-0.01699));
#1163=CARTESIAN_POINT('',(0.17675,0.0402453,-0.005));
#1164=CARTESIAN_POINT('',(0.329335,0.0532453,-0.001));
#1165=CARTESIAN_POINT('',(0.329335,0.0532453,-0.005));
#1166=CARTESIAN_POINT('',(0.329335,0.0532453,-0.001));
#1167=CARTESIAN_POINT('',(0.329335,0.0432453,-0.001));
#1168=CARTESIAN_POINT('',(0.329335,0.0432453,-0.005));
#1169=CARTESIAN_POINT('',(0.329335,0.0432453,-0.001));
#1170=CARTESIAN_POINT('',(0.1766475,0.06253015,-0.001));
#1171=CARTESIAN_POINT('',(0.17675,0.0625,-0.005));
#1172=MECHANICAL_DESIGN_GEOMETRIC_PRESENTATION_REPRESENTATION('',(#737),
#1173);
#1173=(
GEOMETRIC_REPRESENTATION_CONTEXT(3)
GLOBAL_UNCERTAINTY_ASSIGNED_CONTEXT((#1174))
GLOBAL_UNIT_ASSIGNED_CONTEXT((#1177,#1176,#1175))
REPRESENTATION_CONTEXT('Part 1','TOP_LEVEL_ASSEMBLY_PART')
);
#1174=UNCERTAINTY_MEASURE_WITH_UNIT(LENGTH_MEASURE(1.E-8),#1177,
'DISTANCE_ACCURACY_VALUE','Maximum Tolerance applied to model');
#1175=(
NAMED_UNIT(*)
SI_UNIT($,.STERADIAN.)
SOLID_ANGLE_UNIT()
);
#1176=(
NAMED_UNIT(*)
PLANE_ANGLE_UNIT()
SI_UNIT($,.RADIAN.)
);
#1177=(
LENGTH_UNIT()
NAMED_UNIT(*)
SI_UNIT($,.METRE.)
);
#1178=PRODUCT_DEFINITION_SHAPE('','',#1179);
#1179=PRODUCT_DEFINITION('','',#1181,#1180);
#1180=PRODUCT_DEFINITION_CONTEXT('',#1187,'design');
#1181=PRODUCT_DEFINITION_FORMATION_WITH_SPECIFIED_SOURCE('','',#1183,
 .NOT_KNOWN.);
#1182=PRODUCT_RELATED_PRODUCT_CATEGORY('','',(#1183));
#1183=PRODUCT('Part 1','Part 1','Part 1',(#1185));
#1184=PRODUCT_CATEGORY('','');
#1185=PRODUCT_CONTEXT('',#1187,'mechanical');
#1186=APPLICATION_PROTOCOL_DEFINITION('international standard',
'ap242_managed_model_based_3d_engineering',2020,#1187);
#1187=APPLICATION_CONTEXT('managed model based 3d engineering');
ENDSEC;
END-ISO-10303-21;
