ISO-10303-21;
HEADER;
/* Generated by software containing ST-Developer
 * from STEP Tools, Inc. (www.steptools.com) 
 */
/* OPTION: using custom renumber hook */

FILE_DESCRIPTION(
/* description */ ('STEP AP242 Edition 2',
'CAx-IF Rec.Pracs.---Representation and Presentation of Product Manufa
cturing Information (PMI)---4.0---2014-10-13',
'CAx-IF Rec.Pracs.---3D Tessellated Geometry---0.4---2014-09-14','2;1',
'CAx-IF Rec.Pracs.---User Defined Attributes---1.5---2016-08-15'),
/* implementation_level */ '2;1');

FILE_NAME(
/* name */ 'bottom shell',
/* time_stamp */ '2026-09-11T17:41:15Z',
/* author */ (''),
/* organization */ (''),
/* preprocessor_version */ 'ST-DEVELOPER v20',
/* originating_system */ 'ONSHAPE BY PTC INC, 1.220',
/* authorisation */ '  ');

FILE_SCHEMA (('AP242_MANAGED_MODEL_BASED_3D_ENGINEERING_MIM_LF { 1 0 10303 442 3 1 4 }'));
ENDSEC;

DATA;
#10=SHAPE_REPRESENTATION_RELATIONSHIP('','',#731,#11);
#11=ADVANCED_BREP_SHAPE_REPRESENTATION('',(#729),#1151);
#12=CYLINDRICAL_SURFACE('',#745,0.0016);
#13=CYLINDRICAL_SURFACE('',#747,0.0016);
#14=CIRCLE('',#742,0.0016);
#15=CIRCLE('',#743,0.0016);
#16=CIRCLE('',#746,0.0016);
#17=CIRCLE('',#748,0.0016);
#18=ORIENTED_EDGE('',*,*,#214,.T.);
#19=ORIENTED_EDGE('',*,*,#215,.T.);
#20=ORIENTED_EDGE('',*,*,#216,.F.);
#21=ORIENTED_EDGE('',*,*,#217,.F.);
#22=ORIENTED_EDGE('',*,*,#218,.T.);
#23=ORIENTED_EDGE('',*,*,#219,.T.);
#24=ORIENTED_EDGE('',*,*,#220,.F.);
#25=ORIENTED_EDGE('',*,*,#221,.F.);
#26=ORIENTED_EDGE('',*,*,#222,.F.);
#27=ORIENTED_EDGE('',*,*,#223,.T.);
#28=ORIENTED_EDGE('',*,*,#224,.T.);
#29=ORIENTED_EDGE('',*,*,#225,.F.);
#30=ORIENTED_EDGE('',*,*,#226,.F.);
#31=ORIENTED_EDGE('',*,*,#227,.T.);
#32=ORIENTED_EDGE('',*,*,#228,.T.);
#33=ORIENTED_EDGE('',*,*,#229,.F.);
#34=ORIENTED_EDGE('',*,*,#230,.F.);
#35=ORIENTED_EDGE('',*,*,#231,.T.);
#36=ORIENTED_EDGE('',*,*,#232,.T.);
#37=ORIENTED_EDGE('',*,*,#233,.F.);
#38=ORIENTED_EDGE('',*,*,#234,.T.);
#39=ORIENTED_EDGE('',*,*,#235,.T.);
#40=ORIENTED_EDGE('',*,*,#236,.F.);
#41=ORIENTED_EDGE('',*,*,#237,.T.);
#42=ORIENTED_EDGE('',*,*,#214,.F.);
#43=ORIENTED_EDGE('',*,*,#238,.F.);
#44=ORIENTED_EDGE('',*,*,#239,.T.);
#45=ORIENTED_EDGE('',*,*,#240,.T.);
#46=ORIENTED_EDGE('',*,*,#232,.F.);
#47=ORIENTED_EDGE('',*,*,#241,.F.);
#48=ORIENTED_EDGE('',*,*,#242,.F.);
#49=ORIENTED_EDGE('',*,*,#243,.T.);
#50=ORIENTED_EDGE('',*,*,#228,.F.);
#51=ORIENTED_EDGE('',*,*,#244,.F.);
#52=ORIENTED_EDGE('',*,*,#245,.T.);
#53=ORIENTED_EDGE('',*,*,#246,.T.);
#54=ORIENTED_EDGE('',*,*,#226,.T.);
#55=ORIENTED_EDGE('',*,*,#247,.T.);
#56=ORIENTED_EDGE('',*,*,#248,.F.);
#57=ORIENTED_EDGE('',*,*,#249,.F.);
#58=ORIENTED_EDGE('',*,*,#216,.T.);
#59=ORIENTED_EDGE('',*,*,#250,.F.);
#60=ORIENTED_EDGE('',*,*,#251,.T.);
#61=ORIENTED_EDGE('',*,*,#252,.T.);
#62=ORIENTED_EDGE('',*,*,#253,.F.);
#63=ORIENTED_EDGE('',*,*,#254,.F.);
#64=ORIENTED_EDGE('',*,*,#255,.T.);
#65=ORIENTED_EDGE('',*,*,#256,.F.);
#66=ORIENTED_EDGE('',*,*,#257,.F.);
#67=ORIENTED_EDGE('',*,*,#217,.T.);
#68=ORIENTED_EDGE('',*,*,#249,.T.);
#69=ORIENTED_EDGE('',*,*,#258,.F.);
#70=ORIENTED_EDGE('',*,*,#251,.F.);
#71=ORIENTED_EDGE('',*,*,#259,.F.);
#72=ORIENTED_EDGE('',*,*,#218,.F.);
#73=ORIENTED_EDGE('',*,*,#257,.T.);
#74=ORIENTED_EDGE('',*,*,#260,.T.);
#75=ORIENTED_EDGE('',*,*,#261,.F.);
#76=ORIENTED_EDGE('',*,*,#262,.F.);
#77=ORIENTED_EDGE('',*,*,#263,.T.);
#78=ORIENTED_EDGE('',*,*,#264,.F.);
#79=ORIENTED_EDGE('',*,*,#265,.T.);
#80=ORIENTED_EDGE('',*,*,#266,.F.);
#81=ORIENTED_EDGE('',*,*,#261,.T.);
#82=ORIENTED_EDGE('',*,*,#267,.T.);
#83=ORIENTED_EDGE('',*,*,#247,.F.);
#84=ORIENTED_EDGE('',*,*,#235,.F.);
#85=ORIENTED_EDGE('',*,*,#268,.F.);
#86=ORIENTED_EDGE('',*,*,#269,.F.);
#87=ORIENTED_EDGE('',*,*,#270,.F.);
#88=ORIENTED_EDGE('',*,*,#260,.F.);
#89=ORIENTED_EDGE('',*,*,#258,.T.);
#90=ORIENTED_EDGE('',*,*,#248,.T.);
#91=ORIENTED_EDGE('',*,*,#267,.F.);
#92=ORIENTED_EDGE('',*,*,#271,.T.);
#93=ORIENTED_EDGE('',*,*,#272,.T.);
#94=ORIENTED_EDGE('',*,*,#233,.T.);
#95=ORIENTED_EDGE('',*,*,#240,.F.);
#96=ORIENTED_EDGE('',*,*,#273,.F.);
#97=ORIENTED_EDGE('',*,*,#274,.T.);
#98=ORIENTED_EDGE('',*,*,#275,.T.);
#99=ORIENTED_EDGE('',*,*,#276,.F.);
#100=ORIENTED_EDGE('',*,*,#270,.T.);
#101=ORIENTED_EDGE('',*,*,#277,.F.);
#102=ORIENTED_EDGE('',*,*,#269,.T.);
#103=ORIENTED_EDGE('',*,*,#278,.F.);
#104=ORIENTED_EDGE('',*,*,#279,.T.);
#105=ORIENTED_EDGE('',*,*,#280,.T.);
#106=ORIENTED_EDGE('',*,*,#281,.F.);
#107=ORIENTED_EDGE('',*,*,#282,.T.);
#108=ORIENTED_EDGE('',*,*,#274,.F.);
#109=ORIENTED_EDGE('',*,*,#283,.F.);
#110=ORIENTED_EDGE('',*,*,#284,.T.);
#111=ORIENTED_EDGE('',*,*,#220,.T.);
#112=ORIENTED_EDGE('',*,*,#285,.T.);
#113=ORIENTED_EDGE('',*,*,#286,.F.);
#114=ORIENTED_EDGE('',*,*,#287,.T.);
#115=ORIENTED_EDGE('',*,*,#288,.T.);
#116=ORIENTED_EDGE('',*,*,#221,.T.);
#117=ORIENTED_EDGE('',*,*,#284,.F.);
#118=ORIENTED_EDGE('',*,*,#289,.F.);
#119=ORIENTED_EDGE('',*,*,#238,.T.);
#120=ORIENTED_EDGE('',*,*,#225,.T.);
#121=ORIENTED_EDGE('',*,*,#290,.F.);
#122=ORIENTED_EDGE('',*,*,#290,.T.);
#123=ORIENTED_EDGE('',*,*,#224,.F.);
#124=ORIENTED_EDGE('',*,*,#291,.F.);
#125=ORIENTED_EDGE('',*,*,#292,.T.);
#126=ORIENTED_EDGE('',*,*,#291,.T.);
#127=ORIENTED_EDGE('',*,*,#223,.F.);
#128=ORIENTED_EDGE('',*,*,#293,.F.);
#129=ORIENTED_EDGE('',*,*,#294,.F.);
#130=ORIENTED_EDGE('',*,*,#293,.T.);
#131=ORIENTED_EDGE('',*,*,#222,.T.);
#132=ORIENTED_EDGE('',*,*,#288,.F.);
#133=ORIENTED_EDGE('',*,*,#295,.F.);
#134=ORIENTED_EDGE('',*,*,#287,.F.);
#135=ORIENTED_EDGE('',*,*,#292,.F.);
#136=ORIENTED_EDGE('',*,*,#294,.T.);
#137=ORIENTED_EDGE('',*,*,#295,.T.);
#138=ORIENTED_EDGE('',*,*,#255,.F.);
#139=ORIENTED_EDGE('',*,*,#296,.F.);
#140=ORIENTED_EDGE('',*,*,#297,.T.);
#141=ORIENTED_EDGE('',*,*,#286,.T.);
#142=ORIENTED_EDGE('',*,*,#254,.T.);
#143=ORIENTED_EDGE('',*,*,#298,.F.);
#144=ORIENTED_EDGE('',*,*,#299,.F.);
#145=ORIENTED_EDGE('',*,*,#296,.T.);
#146=ORIENTED_EDGE('',*,*,#253,.T.);
#147=ORIENTED_EDGE('',*,*,#280,.F.);
#148=ORIENTED_EDGE('',*,*,#300,.F.);
#149=ORIENTED_EDGE('',*,*,#298,.T.);
#150=ORIENTED_EDGE('',*,*,#279,.F.);
#151=ORIENTED_EDGE('',*,*,#297,.F.);
#152=ORIENTED_EDGE('',*,*,#299,.T.);
#153=ORIENTED_EDGE('',*,*,#300,.T.);
#154=ORIENTED_EDGE('',*,*,#276,.T.);
#155=ORIENTED_EDGE('',*,*,#301,.T.);
#156=ORIENTED_EDGE('',*,*,#265,.F.);
#157=ORIENTED_EDGE('',*,*,#302,.F.);
#158=ORIENTED_EDGE('',*,*,#268,.T.);
#159=ORIENTED_EDGE('',*,*,#234,.F.);
#160=ORIENTED_EDGE('',*,*,#272,.F.);
#161=ORIENTED_EDGE('',*,*,#303,.T.);
#162=ORIENTED_EDGE('',*,*,#271,.F.);
#163=ORIENTED_EDGE('',*,*,#302,.T.);
#164=ORIENTED_EDGE('',*,*,#264,.T.);
#165=ORIENTED_EDGE('',*,*,#303,.F.);
#166=ORIENTED_EDGE('',*,*,#304,.T.);
#167=ORIENTED_EDGE('',*,*,#230,.T.);
#168=ORIENTED_EDGE('',*,*,#305,.F.);
#169=ORIENTED_EDGE('',*,*,#306,.T.);
#170=ORIENTED_EDGE('',*,*,#305,.T.);
#171=ORIENTED_EDGE('',*,*,#229,.T.);
#172=ORIENTED_EDGE('',*,*,#243,.F.);
#173=ORIENTED_EDGE('',*,*,#307,.F.);
#174=ORIENTED_EDGE('',*,*,#241,.T.);
#175=ORIENTED_EDGE('',*,*,#231,.F.);
#176=ORIENTED_EDGE('',*,*,#304,.F.);
#177=ORIENTED_EDGE('',*,*,#308,.T.);
#178=ORIENTED_EDGE('',*,*,#306,.F.);
#179=ORIENTED_EDGE('',*,*,#307,.T.);
#180=ORIENTED_EDGE('',*,*,#242,.T.);
#181=ORIENTED_EDGE('',*,*,#308,.F.);
#182=ORIENTED_EDGE('',*,*,#273,.T.);
#183=ORIENTED_EDGE('',*,*,#239,.F.);
#184=ORIENTED_EDGE('',*,*,#289,.T.);
#185=ORIENTED_EDGE('',*,*,#283,.T.);
#186=ORIENTED_EDGE('',*,*,#277,.T.);
#187=ORIENTED_EDGE('',*,*,#278,.T.);
#188=ORIENTED_EDGE('',*,*,#244,.T.);
#189=ORIENTED_EDGE('',*,*,#227,.F.);
#190=ORIENTED_EDGE('',*,*,#246,.F.);
#191=ORIENTED_EDGE('',*,*,#309,.T.);
#192=ORIENTED_EDGE('',*,*,#250,.T.);
#193=ORIENTED_EDGE('',*,*,#215,.F.);
#194=ORIENTED_EDGE('',*,*,#237,.F.);
#195=ORIENTED_EDGE('',*,*,#310,.T.);
#196=ORIENTED_EDGE('',*,*,#256,.T.);
#197=ORIENTED_EDGE('',*,*,#285,.F.);
#198=ORIENTED_EDGE('',*,*,#219,.F.);
#199=ORIENTED_EDGE('',*,*,#259,.T.);
#200=ORIENTED_EDGE('',*,*,#252,.F.);
#201=ORIENTED_EDGE('',*,*,#263,.F.);
#202=ORIENTED_EDGE('',*,*,#311,.T.);
#203=ORIENTED_EDGE('',*,*,#281,.T.);
#204=ORIENTED_EDGE('',*,*,#311,.F.);
#205=ORIENTED_EDGE('',*,*,#262,.T.);
#206=ORIENTED_EDGE('',*,*,#266,.T.);
#207=ORIENTED_EDGE('',*,*,#301,.F.);
#208=ORIENTED_EDGE('',*,*,#275,.F.);
#209=ORIENTED_EDGE('',*,*,#282,.F.);
#210=ORIENTED_EDGE('',*,*,#310,.F.);
#211=ORIENTED_EDGE('',*,*,#236,.T.);
#212=ORIENTED_EDGE('',*,*,#309,.F.);
#213=ORIENTED_EDGE('',*,*,#245,.F.);
#214=EDGE_CURVE('',#312,#313,#378,.T.);
#215=EDGE_CURVE('',#313,#314,#379,.T.);
#216=EDGE_CURVE('',#315,#314,#380,.T.);
#217=EDGE_CURVE('',#316,#315,#381,.T.);
#218=EDGE_CURVE('',#316,#317,#382,.T.);
#219=EDGE_CURVE('',#317,#318,#383,.T.);
#220=EDGE_CURVE('',#319,#318,#384,.T.);
#221=EDGE_CURVE('',#320,#319,#385,.T.);
#222=EDGE_CURVE('',#321,#320,#386,.T.);
#223=EDGE_CURVE('',#321,#322,#387,.T.);
#224=EDGE_CURVE('',#322,#323,#388,.T.);
#225=EDGE_CURVE('',#312,#323,#389,.T.);
#226=EDGE_CURVE('',#324,#325,#390,.T.);
#227=EDGE_CURVE('',#324,#326,#391,.T.);
#228=EDGE_CURVE('',#326,#327,#392,.T.);
#229=EDGE_CURVE('',#328,#327,#393,.T.);
#230=EDGE_CURVE('',#329,#328,#394,.T.);
#231=EDGE_CURVE('',#329,#330,#395,.T.);
#232=EDGE_CURVE('',#330,#331,#396,.T.);
#233=EDGE_CURVE('',#332,#331,#397,.T.);
#234=EDGE_CURVE('',#332,#333,#398,.T.);
#235=EDGE_CURVE('',#333,#325,#399,.T.);
#236=EDGE_CURVE('',#334,#335,#400,.T.);
#237=EDGE_CURVE('',#334,#313,#401,.T.);
#238=EDGE_CURVE('',#336,#312,#402,.T.);
#239=EDGE_CURVE('',#336,#337,#403,.T.);
#240=EDGE_CURVE('',#337,#331,#404,.T.);
#241=EDGE_CURVE('',#338,#330,#405,.T.);
#242=EDGE_CURVE('',#339,#338,#406,.T.);
#243=EDGE_CURVE('',#339,#327,#407,.T.);
#244=EDGE_CURVE('',#335,#326,#408,.T.);
#245=EDGE_CURVE('',#340,#341,#409,.T.);
#246=EDGE_CURVE('',#341,#324,#410,.T.);
#247=EDGE_CURVE('',#325,#342,#411,.T.);
#248=EDGE_CURVE('',#343,#342,#412,.T.);
#249=EDGE_CURVE('',#315,#343,#413,.T.);
#250=EDGE_CURVE('',#340,#314,#414,.T.);
#251=EDGE_CURVE('',#344,#345,#415,.T.);
#252=EDGE_CURVE('',#345,#346,#416,.T.);
#253=EDGE_CURVE('',#347,#346,#417,.T.);
#254=EDGE_CURVE('',#348,#347,#418,.T.);
#255=EDGE_CURVE('',#348,#349,#419,.T.);
#256=EDGE_CURVE('',#344,#349,#420,.T.);
#257=EDGE_CURVE('',#316,#350,#421,.T.);
#258=EDGE_CURVE('',#350,#343,#422,.T.);
#259=EDGE_CURVE('',#317,#344,#423,.T.);
#260=EDGE_CURVE('',#350,#351,#424,.T.);
#261=EDGE_CURVE('',#352,#351,#425,.T.);
#262=EDGE_CURVE('',#353,#352,#426,.T.);
#263=EDGE_CURVE('',#353,#345,#427,.T.);
#264=EDGE_CURVE('',#354,#355,#428,.T.);
#265=EDGE_CURVE('',#354,#356,#429,.T.);
#266=EDGE_CURVE('',#352,#356,#430,.T.);
#267=EDGE_CURVE('',#351,#342,#431,.T.);
#268=EDGE_CURVE('',#355,#333,#432,.T.);
#269=EDGE_CURVE('',#357,#357,#14,.T.);
#270=EDGE_CURVE('',#358,#358,#15,.T.);
#271=EDGE_CURVE('',#359,#360,#433,.T.);
#272=EDGE_CURVE('',#360,#332,#434,.T.);
#273=EDGE_CURVE('',#361,#337,#435,.T.);
#274=EDGE_CURVE('',#361,#362,#436,.T.);
#275=EDGE_CURVE('',#362,#363,#437,.T.);
#276=EDGE_CURVE('',#359,#363,#438,.T.);
#277=EDGE_CURVE('',#364,#364,#16,.T.);
#278=EDGE_CURVE('',#365,#365,#17,.T.);
#279=EDGE_CURVE('',#366,#367,#439,.T.);
#280=EDGE_CURVE('',#367,#346,#440,.T.);
#281=EDGE_CURVE('',#368,#346,#441,.T.);
#282=EDGE_CURVE('',#368,#362,#442,.T.);
#283=EDGE_CURVE('',#369,#361,#443,.T.);
#284=EDGE_CURVE('',#369,#319,#444,.T.);
#285=EDGE_CURVE('',#318,#349,#445,.T.);
#286=EDGE_CURVE('',#366,#349,#446,.T.);
#287=EDGE_CURVE('',#370,#371,#447,.T.);
#288=EDGE_CURVE('',#371,#320,#448,.T.);
#289=EDGE_CURVE('',#336,#369,#449,.T.);
#290=EDGE_CURVE('',#370,#323,#450,.T.);
#291=EDGE_CURVE('',#372,#322,#451,.T.);
#292=EDGE_CURVE('',#372,#370,#452,.T.);
#293=EDGE_CURVE('',#373,#321,#453,.T.);
#294=EDGE_CURVE('',#372,#373,#454,.T.);
#295=EDGE_CURVE('',#373,#371,#455,.T.);
#296=EDGE_CURVE('',#374,#348,#456,.T.);
#297=EDGE_CURVE('',#374,#366,#457,.T.);
#298=EDGE_CURVE('',#375,#347,#458,.T.);
#299=EDGE_CURVE('',#374,#375,#459,.T.);
#300=EDGE_CURVE('',#375,#367,#460,.T.);
#301=EDGE_CURVE('',#363,#356,#461,.T.);
#302=EDGE_CURVE('',#359,#354,#462,.T.);
#303=EDGE_CURVE('',#360,#355,#463,.T.);
#304=EDGE_CURVE('',#376,#329,#464,.T.);
#305=EDGE_CURVE('',#377,#328,#465,.T.);
#306=EDGE_CURVE('',#377,#376,#466,.T.);
#307=EDGE_CURVE('',#377,#339,#467,.T.);
#308=EDGE_CURVE('',#376,#338,#468,.T.);
#309=EDGE_CURVE('',#341,#335,#469,.T.);
#310=EDGE_CURVE('',#334,#340,#470,.T.);
#311=EDGE_CURVE('',#353,#368,#471,.T.);
#312=VERTEX_POINT('',#952);
#313=VERTEX_POINT('',#953);
#314=VERTEX_POINT('',#955);
#315=VERTEX_POINT('',#957);
#316=VERTEX_POINT('',#959);
#317=VERTEX_POINT('',#961);
#318=VERTEX_POINT('',#963);
#319=VERTEX_POINT('',#965);
#320=VERTEX_POINT('',#967);
#321=VERTEX_POINT('',#969);
#322=VERTEX_POINT('',#971);
#323=VERTEX_POINT('',#973);
#324=VERTEX_POINT('',#977);
#325=VERTEX_POINT('',#978);
#326=VERTEX_POINT('',#980);
#327=VERTEX_POINT('',#982);
#328=VERTEX_POINT('',#984);
#329=VERTEX_POINT('',#986);
#330=VERTEX_POINT('',#988);
#331=VERTEX_POINT('',#990);
#332=VERTEX_POINT('',#992);
#333=VERTEX_POINT('',#994);
#334=VERTEX_POINT('',#998);
#335=VERTEX_POINT('',#999);
#336=VERTEX_POINT('',#1002);
#337=VERTEX_POINT('',#1004);
#338=VERTEX_POINT('',#1007);
#339=VERTEX_POINT('',#1009);
#340=VERTEX_POINT('',#1014);
#341=VERTEX_POINT('',#1015);
#342=VERTEX_POINT('',#1018);
#343=VERTEX_POINT('',#1020);
#344=VERTEX_POINT('',#1025);
#345=VERTEX_POINT('',#1026);
#346=VERTEX_POINT('',#1028);
#347=VERTEX_POINT('',#1030);
#348=VERTEX_POINT('',#1032);
#349=VERTEX_POINT('',#1034);
#350=VERTEX_POINT('',#1038);
#351=VERTEX_POINT('',#1043);
#352=VERTEX_POINT('',#1045);
#353=VERTEX_POINT('',#1047);
#354=VERTEX_POINT('',#1051);
#355=VERTEX_POINT('',#1052);
#356=VERTEX_POINT('',#1054);
#357=VERTEX_POINT('',#1060);
#358=VERTEX_POINT('',#1062);
#359=VERTEX_POINT('',#1065);
#360=VERTEX_POINT('',#1066);
#361=VERTEX_POINT('',#1069);
#362=VERTEX_POINT('',#1071);
#363=VERTEX_POINT('',#1073);
#364=VERTEX_POINT('',#1077);
#365=VERTEX_POINT('',#1080);
#366=VERTEX_POINT('',#1083);
#367=VERTEX_POINT('',#1084);
#368=VERTEX_POINT('',#1087);
#369=VERTEX_POINT('',#1090);
#370=VERTEX_POINT('',#1096);
#371=VERTEX_POINT('',#1097);
#372=VERTEX_POINT('',#1103);
#373=VERTEX_POINT('',#1107);
#374=VERTEX_POINT('',#1114);
#375=VERTEX_POINT('',#1118);
#376=VERTEX_POINT('',#1131);
#377=VERTEX_POINT('',#1133);
#378=LINE('',#951,#472);
#379=LINE('',#954,#473);
#380=LINE('',#956,#474);
#381=LINE('',#958,#475);
#382=LINE('',#960,#476);
#383=LINE('',#962,#477);
#384=LINE('',#964,#478);
#385=LINE('',#966,#479);
#386=LINE('',#968,#480);
#387=LINE('',#970,#481);
#388=LINE('',#972,#482);
#389=LINE('',#974,#483);
#390=LINE('',#976,#484);
#391=LINE('',#979,#485);
#392=LINE('',#981,#486);
#393=LINE('',#983,#487);
#394=LINE('',#985,#488);
#395=LINE('',#987,#489);
#396=LINE('',#989,#490);
#397=LINE('',#991,#491);
#398=LINE('',#993,#492);
#399=LINE('',#995,#493);
#400=LINE('',#997,#494);
#401=LINE('',#1000,#495);
#402=LINE('',#1001,#496);
#403=LINE('',#1003,#497);
#404=LINE('',#1005,#498);
#405=LINE('',#1006,#499);
#406=LINE('',#1008,#500);
#407=LINE('',#1010,#501);
#408=LINE('',#1011,#502);
#409=LINE('',#1013,#503);
#410=LINE('',#1016,#504);
#411=LINE('',#1017,#505);
#412=LINE('',#1019,#506);
#413=LINE('',#1021,#507);
#414=LINE('',#1022,#508);
#415=LINE('',#1024,#509);
#416=LINE('',#1027,#510);
#417=LINE('',#1029,#511);
#418=LINE('',#1031,#512);
#419=LINE('',#1033,#513);
#420=LINE('',#1035,#514);
#421=LINE('',#1037,#515);
#422=LINE('',#1039,#516);
#423=LINE('',#1041,#517);
#424=LINE('',#1042,#518);
#425=LINE('',#1044,#519);
#426=LINE('',#1046,#520);
#427=LINE('',#1048,#521);
#428=LINE('',#1050,#522);
#429=LINE('',#1053,#523);
#430=LINE('',#1055,#524);
#431=LINE('',#1056,#525);
#432=LINE('',#1057,#526);
#433=LINE('',#1064,#527);
#434=LINE('',#1067,#528);
#435=LINE('',#1068,#529);
#436=LINE('',#1070,#530);
#437=LINE('',#1072,#531);
#438=LINE('',#1074,#532);
#439=LINE('',#1082,#533);
#440=LINE('',#1085,#534);
#441=LINE('',#1086,#535);
#442=LINE('',#1088,#536);
#443=LINE('',#1089,#537);
#444=LINE('',#1091,#538);
#445=LINE('',#1092,#539);
#446=LINE('',#1093,#540);
#447=LINE('',#1095,#541);
#448=LINE('',#1098,#542);
#449=LINE('',#1099,#543);
#450=LINE('',#1100,#544);
#451=LINE('',#1102,#545);
#452=LINE('',#1104,#546);
#453=LINE('',#1106,#547);
#454=LINE('',#1108,#548);
#455=LINE('',#1110,#549);
#456=LINE('',#1113,#550);
#457=LINE('',#1115,#551);
#458=LINE('',#1117,#552);
#459=LINE('',#1119,#553);
#460=LINE('',#1121,#554);
#461=LINE('',#1124,#555);
#462=LINE('',#1125,#556);
#463=LINE('',#1127,#557);
#464=LINE('',#1130,#558);
#465=LINE('',#1132,#559);
#466=LINE('',#1134,#560);
#467=LINE('',#1136,#561);
#468=LINE('',#1138,#562);
#469=LINE('',#1142,#563);
#470=LINE('',#1144,#564);
#471=LINE('',#1147,#565);
#472=VECTOR('',#777,1.);
#473=VECTOR('',#778,1.);
#474=VECTOR('',#779,1.);
#475=VECTOR('',#780,1.);
#476=VECTOR('',#781,1.);
#477=VECTOR('',#782,1.);
#478=VECTOR('',#783,1.);
#479=VECTOR('',#784,1.);
#480=VECTOR('',#785,1.);
#481=VECTOR('',#786,1.);
#482=VECTOR('',#787,1.);
#483=VECTOR('',#788,1.);
#484=VECTOR('',#791,1.);
#485=VECTOR('',#792,1.);
#486=VECTOR('',#793,1.);
#487=VECTOR('',#794,1.);
#488=VECTOR('',#795,1.);
#489=VECTOR('',#796,1.);
#490=VECTOR('',#797,1.);
#491=VECTOR('',#798,1.);
#492=VECTOR('',#799,1.);
#493=VECTOR('',#800,1.);
#494=VECTOR('',#803,1.);
#495=VECTOR('',#804,1.);
#496=VECTOR('',#805,1.);
#497=VECTOR('',#806,1.);
#498=VECTOR('',#807,1.);
#499=VECTOR('',#808,1.);
#500=VECTOR('',#809,1.);
#501=VECTOR('',#810,1.);
#502=VECTOR('',#811,1.);
#503=VECTOR('',#814,1.);
#504=VECTOR('',#815,1.);
#505=VECTOR('',#816,1.);
#506=VECTOR('',#817,1.);
#507=VECTOR('',#818,1.);
#508=VECTOR('',#819,1.);
#509=VECTOR('',#822,1.);
#510=VECTOR('',#823,1.);
#511=VECTOR('',#824,1.);
#512=VECTOR('',#825,1.);
#513=VECTOR('',#826,1.);
#514=VECTOR('',#827,1.);
#515=VECTOR('',#830,1.);
#516=VECTOR('',#831,1.);
#517=VECTOR('',#834,1.);
#518=VECTOR('',#835,1.);
#519=VECTOR('',#836,1.);
#520=VECTOR('',#837,1.);
#521=VECTOR('',#838,1.);
#522=VECTOR('',#841,1.);
#523=VECTOR('',#842,1.);
#524=VECTOR('',#843,1.);
#525=VECTOR('',#844,1.);
#526=VECTOR('',#845,1.);
#527=VECTOR('',#854,1.);
#528=VECTOR('',#855,1.);
#529=VECTOR('',#856,1.);
#530=VECTOR('',#857,1.);
#531=VECTOR('',#858,1.);
#532=VECTOR('',#859,1.);
#533=VECTOR('',#870,1.);
#534=VECTOR('',#871,1.);
#535=VECTOR('',#872,1.);
#536=VECTOR('',#873,1.);
#537=VECTOR('',#874,1.);
#538=VECTOR('',#875,1.);
#539=VECTOR('',#876,1.);
#540=VECTOR('',#877,1.);
#541=VECTOR('',#880,1.);
#542=VECTOR('',#881,1.);
#543=VECTOR('',#882,1.);
#544=VECTOR('',#883,1.);
#545=VECTOR('',#886,1.);
#546=VECTOR('',#887,1.);
#547=VECTOR('',#890,1.);
#548=VECTOR('',#891,1.);
#549=VECTOR('',#894,1.);
#550=VECTOR('',#899,1.);
#551=VECTOR('',#900,1.);
#552=VECTOR('',#903,1.);
#553=VECTOR('',#904,1.);
#554=VECTOR('',#907,1.);
#555=VECTOR('',#912,1.);
#556=VECTOR('',#913,1.);
#557=VECTOR('',#916,1.);
#558=VECTOR('',#921,1.);
#559=VECTOR('',#922,1.);
#560=VECTOR('',#923,1.);
#561=VECTOR('',#926,1.);
#562=VECTOR('',#929,1.);
#563=VECTOR('',#936,1.);
#564=VECTOR('',#939,1.);
#565=VECTOR('',#944,1.);
#566=EDGE_LOOP('',(#18,#19,#20,#21,#22,#23,#24,#25,#26,#27,#28,#29));
#567=EDGE_LOOP('',(#30,#31,#32,#33,#34,#35,#36,#37,#38,#39));
#568=EDGE_LOOP('',(#40,#41,#42,#43,#44,#45,#46,#47,#48,#49,#50,#51));
#569=EDGE_LOOP('',(#52,#53,#54,#55,#56,#57,#58,#59));
#570=EDGE_LOOP('',(#60,#61,#62,#63,#64,#65));
#571=EDGE_LOOP('',(#66,#67,#68,#69));
#572=EDGE_LOOP('',(#70,#71,#72,#73,#74,#75,#76,#77));
#573=EDGE_LOOP('',(#78,#79,#80,#81,#82,#83,#84,#85));
#574=EDGE_LOOP('',(#86));
#575=EDGE_LOOP('',(#87));
#576=EDGE_LOOP('',(#88,#89,#90,#91));
#577=EDGE_LOOP('',(#92,#93,#94,#95,#96,#97,#98,#99));
#578=EDGE_LOOP('',(#100));
#579=EDGE_LOOP('',(#101));
#580=EDGE_LOOP('',(#102));
#581=EDGE_LOOP('',(#103));
#582=EDGE_LOOP('',(#104,#105,#106,#107,#108,#109,#110,#111,#112,#113));
#583=EDGE_LOOP('',(#114,#115,#116,#117,#118,#119,#120,#121));
#584=EDGE_LOOP('',(#122,#123,#124,#125));
#585=EDGE_LOOP('',(#126,#127,#128,#129));
#586=EDGE_LOOP('',(#130,#131,#132,#133));
#587=EDGE_LOOP('',(#134,#135,#136,#137));
#588=EDGE_LOOP('',(#138,#139,#140,#141));
#589=EDGE_LOOP('',(#142,#143,#144,#145));
#590=EDGE_LOOP('',(#146,#147,#148,#149));
#591=EDGE_LOOP('',(#150,#151,#152,#153));
#592=EDGE_LOOP('',(#154,#155,#156,#157));
#593=EDGE_LOOP('',(#158,#159,#160,#161));
#594=EDGE_LOOP('',(#162,#163,#164,#165));
#595=EDGE_LOOP('',(#166,#167,#168,#169));
#596=EDGE_LOOP('',(#170,#171,#172,#173));
#597=EDGE_LOOP('',(#174,#175,#176,#177));
#598=EDGE_LOOP('',(#178,#179,#180,#181));
#599=EDGE_LOOP('',(#182,#183,#184,#185));
#600=EDGE_LOOP('',(#186));
#601=EDGE_LOOP('',(#187));
#602=EDGE_LOOP('',(#188,#189,#190,#191));
#603=EDGE_LOOP('',(#192,#193,#194,#195));
#604=EDGE_LOOP('',(#196,#197,#198,#199));
#605=EDGE_LOOP('',(#200,#201,#202,#203));
#606=EDGE_LOOP('',(#204,#205,#206,#207,#208,#209));
#607=EDGE_LOOP('',(#210,#211,#212,#213));
#608=FACE_BOUND('',#566,.T.);
#609=FACE_BOUND('',#567,.T.);
#610=FACE_BOUND('',#568,.T.);
#611=FACE_BOUND('',#569,.T.);
#612=FACE_BOUND('',#570,.T.);
#613=FACE_BOUND('',#571,.T.);
#614=FACE_BOUND('',#572,.T.);
#615=FACE_BOUND('',#573,.T.);
#616=FACE_BOUND('',#574,.T.);
#617=FACE_BOUND('',#575,.T.);
#618=FACE_BOUND('',#576,.T.);
#619=FACE_BOUND('',#577,.T.);
#620=FACE_BOUND('',#578,.T.);
#621=FACE_BOUND('',#579,.T.);
#622=FACE_BOUND('',#580,.T.);
#623=FACE_BOUND('',#581,.T.);
#624=FACE_BOUND('',#582,.T.);
#625=FACE_BOUND('',#583,.T.);
#626=FACE_BOUND('',#584,.T.);
#627=FACE_BOUND('',#585,.T.);
#628=FACE_BOUND('',#586,.T.);
#629=FACE_BOUND('',#587,.T.);
#630=FACE_BOUND('',#588,.T.);
#631=FACE_BOUND('',#589,.T.);
#632=FACE_BOUND('',#590,.T.);
#633=FACE_BOUND('',#591,.T.);
#634=FACE_BOUND('',#592,.T.);
#635=FACE_BOUND('',#593,.T.);
#636=FACE_BOUND('',#594,.T.);
#637=FACE_BOUND('',#595,.T.);
#638=FACE_BOUND('',#596,.T.);
#639=FACE_BOUND('',#597,.T.);
#640=FACE_BOUND('',#598,.T.);
#641=FACE_BOUND('',#599,.T.);
#642=FACE_BOUND('',#600,.T.);
#643=FACE_BOUND('',#601,.T.);
#644=FACE_BOUND('',#602,.T.);
#645=FACE_BOUND('',#603,.T.);
#646=FACE_BOUND('',#604,.T.);
#647=FACE_BOUND('',#605,.T.);
#648=FACE_BOUND('',#606,.T.);
#649=FACE_BOUND('',#607,.T.);
#650=PLANE('',#733);
#651=PLANE('',#734);
#652=PLANE('',#735);
#653=PLANE('',#736);
#654=PLANE('',#737);
#655=PLANE('',#738);
#656=PLANE('',#739);
#657=PLANE('',#740);
#658=PLANE('',#741);
#659=PLANE('',#744);
#660=PLANE('',#749);
#661=PLANE('',#750);
#662=PLANE('',#751);
#663=PLANE('',#752);
#664=PLANE('',#753);
#665=PLANE('',#754);
#666=PLANE('',#755);
#667=PLANE('',#756);
#668=PLANE('',#757);
#669=PLANE('',#758);
#670=PLANE('',#759);
#671=PLANE('',#760);
#672=PLANE('',#761);
#673=PLANE('',#762);
#674=PLANE('',#763);
#675=PLANE('',#764);
#676=PLANE('',#765);
#677=PLANE('',#766);
#678=PLANE('',#767);
#679=PLANE('',#768);
#680=PLANE('',#769);
#681=PLANE('',#770);
#682=PLANE('',#771);
#683=PLANE('',#772);
#684=ADVANCED_FACE('',(#608),#650,.T.);
#685=ADVANCED_FACE('',(#609),#651,.T.);
#686=ADVANCED_FACE('',(#610),#652,.T.);
#687=ADVANCED_FACE('',(#611),#653,.T.);
#688=ADVANCED_FACE('',(#612),#654,.T.);
#689=ADVANCED_FACE('',(#613),#655,.T.);
#690=ADVANCED_FACE('',(#614),#656,.F.);
#691=ADVANCED_FACE('',(#615),#657,.F.);
#692=ADVANCED_FACE('',(#616,#617,#618),#658,.T.);
#693=ADVANCED_FACE('',(#619),#659,.F.);
#694=ADVANCED_FACE('',(#620,#621),#12,.F.);
#695=ADVANCED_FACE('',(#622,#623),#13,.F.);
#696=ADVANCED_FACE('',(#624),#660,.F.);
#697=ADVANCED_FACE('',(#625),#661,.F.);
#698=ADVANCED_FACE('',(#626),#662,.T.);
#699=ADVANCED_FACE('',(#627),#663,.F.);
#700=ADVANCED_FACE('',(#628),#664,.F.);
#701=ADVANCED_FACE('',(#629),#665,.T.);
#702=ADVANCED_FACE('',(#630),#666,.T.);
#703=ADVANCED_FACE('',(#631),#667,.F.);
#704=ADVANCED_FACE('',(#632),#668,.F.);
#705=ADVANCED_FACE('',(#633),#669,.T.);
#706=ADVANCED_FACE('',(#634),#670,.F.);
#707=ADVANCED_FACE('',(#635),#671,.T.);
#708=ADVANCED_FACE('',(#636),#672,.T.);
#709=ADVANCED_FACE('',(#637),#673,.T.);
#710=ADVANCED_FACE('',(#638),#674,.F.);
#711=ADVANCED_FACE('',(#639),#675,.T.);
#712=ADVANCED_FACE('',(#640),#676,.T.);
#713=ADVANCED_FACE('',(#641,#642,#643),#677,.F.);
#714=ADVANCED_FACE('',(#644),#678,.T.);
#715=ADVANCED_FACE('',(#645),#679,.T.);
#716=ADVANCED_FACE('',(#646),#680,.F.);
#717=ADVANCED_FACE('',(#647),#681,.T.);
#718=ADVANCED_FACE('',(#648),#682,.T.);
#719=ADVANCED_FACE('',(#649),#683,.T.);
#720=CLOSED_SHELL('',(#684,#685,#686,#687,#688,#689,#690,#691,#692,#693,
#694,#695,#696,#697,#698,#699,#700,#701,#702,#703,#704,#705,#706,#707,#708,
#709,#710,#711,#712,#713,#714,#715,#716,#717,#718,#719));
#721=STYLED_ITEM('',(#722),#729);
#722=PRESENTATION_STYLE_ASSIGNMENT((#723));
#723=SURFACE_STYLE_USAGE(.BOTH.,#724);
#724=SURFACE_SIDE_STYLE('',(#725));
#725=SURFACE_STYLE_FILL_AREA(#726);
#726=FILL_AREA_STYLE('',(#727));
#727=FILL_AREA_STYLE_COLOUR('',#728);
#728=COLOUR_RGB('',0.615686274509804,0.811764705882353,0.929411764705882);
#729=MANIFOLD_SOLID_BREP('Part 1',#720);
#730=SHAPE_DEFINITION_REPRESENTATION(#1156,#731);
#731=SHAPE_REPRESENTATION('Part 1',(#732),#1151);
#732=AXIS2_PLACEMENT_3D('',#949,#773,#774);
#733=AXIS2_PLACEMENT_3D('',#950,#775,#776);
#734=AXIS2_PLACEMENT_3D('',#975,#789,#790);
#735=AXIS2_PLACEMENT_3D('',#996,#801,#802);
#736=AXIS2_PLACEMENT_3D('',#1012,#812,#813);
#737=AXIS2_PLACEMENT_3D('',#1023,#820,#821);
#738=AXIS2_PLACEMENT_3D('',#1036,#828,#829);
#739=AXIS2_PLACEMENT_3D('',#1040,#832,#833);
#740=AXIS2_PLACEMENT_3D('',#1049,#839,#840);
#741=AXIS2_PLACEMENT_3D('',#1058,#846,#847);
#742=AXIS2_PLACEMENT_3D('',#1059,#848,#849);
#743=AXIS2_PLACEMENT_3D('',#1061,#850,#851);
#744=AXIS2_PLACEMENT_3D('',#1063,#852,#853);
#745=AXIS2_PLACEMENT_3D('',#1075,#860,#861);
#746=AXIS2_PLACEMENT_3D('',#1076,#862,#863);
#747=AXIS2_PLACEMENT_3D('',#1078,#864,#865);
#748=AXIS2_PLACEMENT_3D('',#1079,#866,#867);
#749=AXIS2_PLACEMENT_3D('',#1081,#868,#869);
#750=AXIS2_PLACEMENT_3D('',#1094,#878,#879);
#751=AXIS2_PLACEMENT_3D('',#1101,#884,#885);
#752=AXIS2_PLACEMENT_3D('',#1105,#888,#889);
#753=AXIS2_PLACEMENT_3D('',#1109,#892,#893);
#754=AXIS2_PLACEMENT_3D('',#1111,#895,#896);
#755=AXIS2_PLACEMENT_3D('',#1112,#897,#898);
#756=AXIS2_PLACEMENT_3D('',#1116,#901,#902);
#757=AXIS2_PLACEMENT_3D('',#1120,#905,#906);
#758=AXIS2_PLACEMENT_3D('',#1122,#908,#909);
#759=AXIS2_PLACEMENT_3D('',#1123,#910,#911);
#760=AXIS2_PLACEMENT_3D('',#1126,#914,#915);
#761=AXIS2_PLACEMENT_3D('',#1128,#917,#918);
#762=AXIS2_PLACEMENT_3D('',#1129,#919,#920);
#763=AXIS2_PLACEMENT_3D('',#1135,#924,#925);
#764=AXIS2_PLACEMENT_3D('',#1137,#927,#928);
#765=AXIS2_PLACEMENT_3D('',#1139,#930,#931);
#766=AXIS2_PLACEMENT_3D('',#1140,#932,#933);
#767=AXIS2_PLACEMENT_3D('',#1141,#934,#935);
#768=AXIS2_PLACEMENT_3D('',#1143,#937,#938);
#769=AXIS2_PLACEMENT_3D('',#1145,#940,#941);
#770=AXIS2_PLACEMENT_3D('',#1146,#942,#943);
#771=AXIS2_PLACEMENT_3D('',#1148,#945,#946);
#772=AXIS2_PLACEMENT_3D('',#1149,#947,#948);
#773=DIRECTION('',(0.,0.,1.));
#774=DIRECTION('',(1.,0.,0.));
#775=DIRECTION('',(0.,0.,1.));
#776=DIRECTION('',(1.,0.,0.));
#777=DIRECTION('',(0.,1.,0.));
#778=DIRECTION('',(-1.,0.,0.));
#779=DIRECTION('',(0.,1.,0.));
#780=DIRECTION('',(1.,0.,0.));
#781=DIRECTION('',(-2.16840434497101E-16,1.,0.));
#782=DIRECTION('',(-0.597099248310187,-0.802167368862266,0.));
#783=DIRECTION('',(0.,1.,0.));
#784=DIRECTION('',(-1.,0.,0.));
#785=DIRECTION('',(-0.868403417425592,-0.495858351350013,0.));
#786=DIRECTION('',(1.,0.,0.));
#787=DIRECTION('',(0.868403417425593,-0.495858351350011,0.));
#788=DIRECTION('',(-1.,0.,0.));
#789=DIRECTION('',(0.,0.,1.));
#790=DIRECTION('',(1.,0.,0.));
#791=DIRECTION('',(0.,1.,0.));
#792=DIRECTION('',(1.,0.,0.));
#793=DIRECTION('',(0.,1.,0.));
#794=DIRECTION('',(0.514495755427527,-0.857492925712544,0.));
#795=DIRECTION('',(0.,-1.,0.));
#796=DIRECTION('',(0.514495755427527,0.857492925712544,0.));
#797=DIRECTION('',(0.,1.,0.));
#798=DIRECTION('',(1.,0.,0.));
#799=DIRECTION('',(-0.857492925712544,-0.514495755427527,0.));
#800=DIRECTION('',(1.,0.,0.));
#801=DIRECTION('',(1.,0.,0.));
#802=DIRECTION('',(0.,0.,-1.));
#803=DIRECTION('',(0.,1.,0.));
#804=DIRECTION('',(0.,0.,1.));
#805=DIRECTION('',(0.,0.,1.));
#806=DIRECTION('',(0.,1.,0.));
#807=DIRECTION('',(0.,0.,1.));
#808=DIRECTION('',(0.,0.,1.));
#809=DIRECTION('',(0.,1.,0.));
#810=DIRECTION('',(0.,0.,1.));
#811=DIRECTION('',(0.,0.,1.));
#812=DIRECTION('',(-1.,0.,0.));
#813=DIRECTION('',(0.,0.,1.));
#814=DIRECTION('',(0.,1.,0.));
#815=DIRECTION('',(0.,0.,1.));
#816=DIRECTION('',(0.,0.,-1.));
#817=DIRECTION('',(0.,1.,0.));
#818=DIRECTION('',(0.,0.,-1.));
#819=DIRECTION('',(0.,0.,1.));
#820=DIRECTION('',(0.,0.,1.));
#821=DIRECTION('',(1.,0.,0.));
#822=DIRECTION('',(-2.16840434497101E-16,1.,0.));
#823=DIRECTION('',(-0.662122889681515,0.749395275512063,0.));
#824=DIRECTION('',(-0.514495755427526,0.857492925712544,0.));
#825=DIRECTION('',(0.,1.,0.));
#826=DIRECTION('',(-0.514495755427527,-0.857492925712544,0.));
#827=DIRECTION('',(-0.597099248310187,-0.802167368862266,0.));
#828=DIRECTION('',(0.,1.,0.));
#829=DIRECTION('',(0.,0.,1.));
#830=DIRECTION('',(0.,0.,-1.));
#831=DIRECTION('',(1.,0.,0.));
#832=DIRECTION('',(-1.,-2.16840434497101E-16,0.));
#833=DIRECTION('',(2.16840434497101E-16,-1.,0.));
#834=DIRECTION('',(0.,0.,-1.));
#835=DIRECTION('',(-2.16840434497101E-16,1.,0.));
#836=DIRECTION('',(0.,0.,-1.));
#837=DIRECTION('',(-2.16840434497101E-16,1.,0.));
#838=DIRECTION('',(0.,0.,-1.));
#839=DIRECTION('',(0.,1.,0.));
#840=DIRECTION('',(0.,0.,1.));
#841=DIRECTION('',(1.,0.,0.));
#842=DIRECTION('',(0.,0.,1.));
#843=DIRECTION('',(1.,0.,0.));
#844=DIRECTION('',(1.,0.,0.));
#845=DIRECTION('',(0.,0.,1.));
#846=DIRECTION('',(0.,0.,1.));
#847=DIRECTION('',(1.,0.,0.));
#848=DIRECTION('',(0.,0.,1.));
#849=DIRECTION('',(1.,0.,0.));
#850=DIRECTION('',(0.,0.,1.));
#851=DIRECTION('',(1.,0.,0.));
#852=DIRECTION('',(0.,-1.,0.));
#853=DIRECTION('',(0.,0.,-1.));
#854=DIRECTION('',(1.,0.,0.));
#855=DIRECTION('',(0.,0.,1.));
#856=DIRECTION('',(1.,0.,0.));
#857=DIRECTION('',(0.,0.,1.));
#858=DIRECTION('',(1.,0.,0.));
#859=DIRECTION('',(0.,0.,1.));
#860=DIRECTION('',(0.,0.,1.));
#861=DIRECTION('',(1.,0.,0.));
#862=DIRECTION('',(0.,0.,1.));
#863=DIRECTION('',(1.,0.,0.));
#864=DIRECTION('',(0.,0.,1.));
#865=DIRECTION('',(1.,0.,0.));
#866=DIRECTION('',(0.,0.,1.));
#867=DIRECTION('',(1.,0.,0.));
#868=DIRECTION('',(1.,0.,0.));
#869=DIRECTION('',(0.,0.,-1.));
#870=DIRECTION('',(0.,1.,0.));
#871=DIRECTION('',(0.,0.,1.));
#872=DIRECTION('',(0.,0.,-1.));
#873=DIRECTION('',(0.,1.,0.));
#874=DIRECTION('',(0.,1.,0.));
#875=DIRECTION('',(0.,0.,1.));
#876=DIRECTION('',(0.,0.,-1.));
#877=DIRECTION('',(0.,0.,1.));
#878=DIRECTION('',(0.,1.,0.));
#879=DIRECTION('',(0.,0.,1.));
#880=DIRECTION('',(-1.,0.,0.));
#881=DIRECTION('',(0.,0.,1.));
#882=DIRECTION('',(-1.,0.,0.));
#883=DIRECTION('',(0.,0.,1.));
#884=DIRECTION('',(-0.495858351350011,-0.868403417425593,0.));
#885=DIRECTION('',(0.868403417425593,-0.495858351350011,0.));
#886=DIRECTION('',(0.,0.,1.));
#887=DIRECTION('',(0.868403417425593,-0.495858351350011,0.));
#888=DIRECTION('',(0.,1.,0.));
#889=DIRECTION('',(0.,0.,1.));
#890=DIRECTION('',(0.,0.,1.));
#891=DIRECTION('',(-1.,0.,0.));
#892=DIRECTION('',(-0.495858351350013,0.868403417425592,0.));
#893=DIRECTION('',(-0.868403417425592,-0.495858351350013,0.));
#894=DIRECTION('',(-0.868403417425592,-0.495858351350013,0.));
#895=DIRECTION('',(0.,0.,1.));
#896=DIRECTION('',(1.,0.,0.));
#897=DIRECTION('',(-0.857492925712544,0.514495755427527,0.));
#898=DIRECTION('',(-0.514495755427527,-0.857492925712544,0.));
#899=DIRECTION('',(0.,0.,1.));
#900=DIRECTION('',(-0.514495755427527,-0.857492925712544,0.));
#901=DIRECTION('',(1.,0.,0.));
#902=DIRECTION('',(0.,0.,-1.));
#903=DIRECTION('',(0.,0.,1.));
#904=DIRECTION('',(0.,1.,0.));
#905=DIRECTION('',(0.857492925712544,0.514495755427526,0.));
#906=DIRECTION('',(-0.514495755427526,0.857492925712544,0.));
#907=DIRECTION('',(-0.514495755427526,0.857492925712544,0.));
#908=DIRECTION('',(0.,0.,1.));
#909=DIRECTION('',(1.,0.,0.));
#910=DIRECTION('',(-0.514495755427527,-0.857492925712544,0.));
#911=DIRECTION('',(0.857492925712544,-0.514495755427527,0.));
#912=DIRECTION('',(0.857492925712544,-0.514495755427527,0.));
#913=DIRECTION('',(0.857492925712544,-0.514495755427527,0.));
#914=DIRECTION('',(-0.514495755427527,0.857492925712544,0.));
#915=DIRECTION('',(-0.857492925712544,-0.514495755427527,0.));
#916=DIRECTION('',(-0.857492925712544,-0.514495755427527,0.));
#917=DIRECTION('',(0.,0.,1.));
#918=DIRECTION('',(1.,0.,0.));
#919=DIRECTION('',(1.,0.,0.));
#920=DIRECTION('',(0.,0.,-1.));
#921=DIRECTION('',(0.,0.,1.));
#922=DIRECTION('',(0.,0.,1.));
#923=DIRECTION('',(0.,1.,0.));
#924=DIRECTION('',(-0.857492925712544,-0.514495755427527,0.));
#925=DIRECTION('',(0.514495755427527,-0.857492925712544,0.));
#926=DIRECTION('',(0.514495755427527,-0.857492925712544,0.));
#927=DIRECTION('',(0.857492925712544,-0.514495755427527,0.));
#928=DIRECTION('',(0.514495755427527,0.857492925712544,0.));
#929=DIRECTION('',(0.514495755427527,0.857492925712544,0.));
#930=DIRECTION('',(0.,0.,1.));
#931=DIRECTION('',(1.,0.,0.));
#932=DIRECTION('',(0.,0.,1.));
#933=DIRECTION('',(1.,0.,0.));
#934=DIRECTION('',(0.,-1.,0.));
#935=DIRECTION('',(0.,0.,-1.));
#936=DIRECTION('',(1.,0.,0.));
#937=DIRECTION('',(0.,1.,0.));
#938=DIRECTION('',(0.,0.,1.));
#939=DIRECTION('',(-1.,0.,0.));
#940=DIRECTION('',(0.802167368862266,-0.597099248310187,0.));
#941=DIRECTION('',(0.597099248310187,0.802167368862266,0.));
#942=DIRECTION('',(-0.749395275512062,-0.662122889681515,0.));
#943=DIRECTION('',(0.662122889681515,-0.749395275512063,0.));
#944=DIRECTION('',(-0.662122889681515,0.749395275512063,0.));
#945=DIRECTION('',(0.,0.,1.));
#946=DIRECTION('',(1.,0.,0.));
#947=DIRECTION('',(0.,0.,1.));
#948=DIRECTION('',(1.,0.,0.));
#949=CARTESIAN_POINT('',(0.,0.,0.));
#950=CARTESIAN_POINT('',(0.1766475,0.0620725,0.00951));
#951=CARTESIAN_POINT('',(0.358335,0.0625,0.00951));
#952=CARTESIAN_POINT('',(0.358335,-0.004855,0.00951));
#953=CARTESIAN_POINT('',(0.358335,0.044245,0.00951));
#954=CARTESIAN_POINT('',(0.3564175,0.044245,0.00951));
#955=CARTESIAN_POINT('',(0.3545,0.044245,0.00951));
#956=CARTESIAN_POINT('',(0.3545,0.0625,0.00951));
#957=CARTESIAN_POINT('',(0.3545,-0.000999999999999973,0.00951));
#958=CARTESIAN_POINT('',(0.13975,-0.001,0.00951));
#959=CARTESIAN_POINT('',(-0.001,-0.001,0.00951));
#960=CARTESIAN_POINT('',(-0.001,-0.0005,0.00951));
#961=CARTESIAN_POINT('',(-0.00100000000000001,0.0475,0.00951));
#962=CARTESIAN_POINT('',(-0.00302,0.04478625,0.00951));
#963=CARTESIAN_POINT('',(-0.00504,0.0420725,0.00951));
#964=CARTESIAN_POINT('',(-0.00504,0.064,0.00951));
#965=CARTESIAN_POINT('',(-0.00504,-0.004855,0.00951));
#966=CARTESIAN_POINT('',(-0.0025,-0.004855,0.00951));
#967=CARTESIAN_POINT('',(0.1566475,-0.004855,0.00951));
#968=CARTESIAN_POINT('',(0.1591475,-0.0034275,0.00951));
#969=CARTESIAN_POINT('',(0.1616475,-0.002,0.00951));
#970=CARTESIAN_POINT('',(0.1841475,-0.002,0.00951));
#971=CARTESIAN_POINT('',(0.1916475,-0.002,0.00951));
#972=CARTESIAN_POINT('',(0.1941475,-0.0034275,0.00951));
#973=CARTESIAN_POINT('',(0.1966475,-0.004855,0.00951));
#974=CARTESIAN_POINT('',(-0.0025,-0.004855,0.00951));
#975=CARTESIAN_POINT('',(0.1766475,0.0620725,0.00951));
#976=CARTESIAN_POINT('',(0.3545,0.0625,0.00951));
#977=CARTESIAN_POINT('',(0.3545,0.053245,0.00951));
#978=CARTESIAN_POINT('',(0.3545,0.126,0.00951));
#979=CARTESIAN_POINT('',(0.3564175,0.053245,0.00951));
#980=CARTESIAN_POINT('',(0.358335,0.053245,0.00951));
#981=CARTESIAN_POINT('',(0.358335,0.0625,0.00951));
#982=CARTESIAN_POINT('',(0.358335,0.066245,0.00951));
#983=CARTESIAN_POINT('',(0.356835,0.068745,0.00951));
#984=CARTESIAN_POINT('',(0.355335,0.071245,0.00951));
#985=CARTESIAN_POINT('',(0.355335,0.078745,0.00951));
#986=CARTESIAN_POINT('',(0.355335,0.101245,0.00951));
#987=CARTESIAN_POINT('',(0.356835,0.103745,0.00951));
#988=CARTESIAN_POINT('',(0.358335,0.106245,0.00951));
#989=CARTESIAN_POINT('',(0.358335,0.0625,0.00951));
#990=CARTESIAN_POINT('',(0.358335,0.129,0.00951));
#991=CARTESIAN_POINT('',(0.17675,0.129,0.00951));
#992=CARTESIAN_POINT('',(0.1966475,0.129,0.00951));
#993=CARTESIAN_POINT('',(0.1941475,0.1275,0.00951));
#994=CARTESIAN_POINT('',(0.1916475,0.126,0.00951));
#995=CARTESIAN_POINT('',(0.17675,0.126,0.00951));
#996=CARTESIAN_POINT('',(0.358335,0.0625,-0.003));
#997=CARTESIAN_POINT('',(0.358335,0.0625,0.00451));
#998=CARTESIAN_POINT('',(0.358335,0.044245,0.00451));
#999=CARTESIAN_POINT('',(0.358335,0.053245,0.00451));
#1000=CARTESIAN_POINT('',(0.358335,0.044245,0.00601));
#1001=CARTESIAN_POINT('',(0.358335,-0.004855,-0.003));
#1002=CARTESIAN_POINT('',(0.358335,-0.004855,-0.005));
#1003=CARTESIAN_POINT('',(0.358335,0.0625,-0.005));
#1004=CARTESIAN_POINT('',(0.358335,0.129,-0.005));
#1005=CARTESIAN_POINT('',(0.358335,0.129,-0.003));
#1006=CARTESIAN_POINT('',(0.358335,0.106245,0.00351));
#1007=CARTESIAN_POINT('',(0.358335,0.106245,0.00351));
#1008=CARTESIAN_POINT('',(0.358335,0.0625,0.00351));
#1009=CARTESIAN_POINT('',(0.358335,0.066245,0.00351));
#1010=CARTESIAN_POINT('',(0.358335,0.066245,0.00351));
#1011=CARTESIAN_POINT('',(0.358335,0.053245,0.00601));
#1012=CARTESIAN_POINT('',(0.3545,0.0625,0.00751));
#1013=CARTESIAN_POINT('',(0.3545,0.0625,0.00451));
#1014=CARTESIAN_POINT('',(0.3545,0.044245,0.00451));
#1015=CARTESIAN_POINT('',(0.3545,0.053245,0.00451));
#1016=CARTESIAN_POINT('',(0.3545,0.053245,0.00601));
#1017=CARTESIAN_POINT('',(0.3545,0.126,0.00751));
#1018=CARTESIAN_POINT('',(0.3545,0.126,0.));
#1019=CARTESIAN_POINT('',(0.3545,0.0625,0.));
#1020=CARTESIAN_POINT('',(0.3545,-0.000999999999999973,0.));
#1021=CARTESIAN_POINT('',(0.3545,-0.000999999999999973,0.00751));
#1022=CARTESIAN_POINT('',(0.3545,0.044245,0.00601));
#1023=CARTESIAN_POINT('',(0.17675,0.0625,0.00801));
#1024=CARTESIAN_POINT('',(-0.001,-0.0005,0.00801));
#1025=CARTESIAN_POINT('',(-0.001,0.0475,0.00801));
#1026=CARTESIAN_POINT('',(-0.001,0.0775,0.00801));
#1027=CARTESIAN_POINT('',(-0.00302,0.07978625,0.00801));
#1028=CARTESIAN_POINT('',(-0.00504,0.0820725,0.00801));
#1029=CARTESIAN_POINT('',(-0.00354,0.0795725,0.00801));
#1030=CARTESIAN_POINT('',(-0.00204,0.0770725,0.00801));
#1031=CARTESIAN_POINT('',(-0.00204,0.0695725,0.00801));
#1032=CARTESIAN_POINT('',(-0.00204,0.0470725,0.00801));
#1033=CARTESIAN_POINT('',(-0.00354,0.0445725,0.00801));
#1034=CARTESIAN_POINT('',(-0.00504,0.0420725,0.00801));
#1035=CARTESIAN_POINT('',(-0.00302,0.04478625,0.00801));
#1036=CARTESIAN_POINT('',(0.13975,-0.001,0.00751));
#1037=CARTESIAN_POINT('',(-0.001,-0.001,0.00751));
#1038=CARTESIAN_POINT('',(-0.001,-0.001,0.));
#1039=CARTESIAN_POINT('',(0.13975,-0.001,0.));
#1040=CARTESIAN_POINT('',(-0.001,-0.0005,0.00751));
#1041=CARTESIAN_POINT('',(-0.00100000000000001,0.0475,0.00951));
#1042=CARTESIAN_POINT('',(-0.001,-0.0005,0.));
#1043=CARTESIAN_POINT('',(-0.00100000000000003,0.126,0.));
#1044=CARTESIAN_POINT('',(-0.00100000000000003,0.126,0.00751));
#1045=CARTESIAN_POINT('',(-0.00100000000000003,0.126,0.00951));
#1046=CARTESIAN_POINT('',(-0.001,-0.0005,0.00951));
#1047=CARTESIAN_POINT('',(-0.001,0.0775,0.00951));
#1048=CARTESIAN_POINT('',(-0.001,0.0775,0.00951));
#1049=CARTESIAN_POINT('',(0.17675,0.126,0.00751));
#1050=CARTESIAN_POINT('',(0.17675,0.126,0.00351));
#1051=CARTESIAN_POINT('',(0.1616475,0.126,0.00351));
#1052=CARTESIAN_POINT('',(0.1916475,0.126,0.00351));
#1053=CARTESIAN_POINT('',(0.1616475,0.126,0.00351));
#1054=CARTESIAN_POINT('',(0.1616475,0.126,0.00951));
#1055=CARTESIAN_POINT('',(0.17675,0.126,0.00951));
#1056=CARTESIAN_POINT('',(0.17675,0.126,0.));
#1057=CARTESIAN_POINT('',(0.1916475,0.126,0.00351));
#1058=CARTESIAN_POINT('',(0.17675,0.0625,0.));
#1059=CARTESIAN_POINT('',(0.2805,0.028,0.));
#1060=CARTESIAN_POINT('',(0.2821,0.028,0.));
#1061=CARTESIAN_POINT('',(0.0285,0.114,0.));
#1062=CARTESIAN_POINT('',(0.0301,0.114,0.));
#1063=CARTESIAN_POINT('',(0.17675,0.129,-0.003));
#1064=CARTESIAN_POINT('',(0.17675,0.129,0.00351));
#1065=CARTESIAN_POINT('',(0.1566475,0.129,0.00351));
#1066=CARTESIAN_POINT('',(0.1966475,0.129,0.00351));
#1067=CARTESIAN_POINT('',(0.1966475,0.129,0.00351));
#1068=CARTESIAN_POINT('',(0.17675,0.129,-0.005));
#1069=CARTESIAN_POINT('',(-0.00504,0.129,-0.005));
#1070=CARTESIAN_POINT('',(-0.00504,0.129,-0.003));
#1071=CARTESIAN_POINT('',(-0.00504,0.129,0.00951));
#1072=CARTESIAN_POINT('',(0.17675,0.129,0.00951));
#1073=CARTESIAN_POINT('',(0.1566475,0.129,0.00951));
#1074=CARTESIAN_POINT('',(0.1566475,0.129,0.00351));
#1075=CARTESIAN_POINT('',(0.0285,0.114,-0.003));
#1076=CARTESIAN_POINT('',(0.0285,0.114,-0.005));
#1077=CARTESIAN_POINT('',(0.0301,0.114,-0.005));
#1078=CARTESIAN_POINT('',(0.2805,0.028,-0.003));
#1079=CARTESIAN_POINT('',(0.2805,0.028,-0.005));
#1080=CARTESIAN_POINT('',(0.2821,0.028,-0.005));
#1081=CARTESIAN_POINT('',(-0.00504,0.064,-0.003));
#1082=CARTESIAN_POINT('',(-0.00504,0.064,0.00351));
#1083=CARTESIAN_POINT('',(-0.00504,0.0420725,0.00351));
#1084=CARTESIAN_POINT('',(-0.00504,0.0820725,0.00351));
#1085=CARTESIAN_POINT('',(-0.00504,0.0820725,0.00351));
#1086=CARTESIAN_POINT('',(-0.00504,0.0820725,0.00951));
#1087=CARTESIAN_POINT('',(-0.00504,0.0820725,0.00951));
#1088=CARTESIAN_POINT('',(-0.00504,0.064,0.00951));
#1089=CARTESIAN_POINT('',(-0.00504,0.064,-0.005));
#1090=CARTESIAN_POINT('',(-0.00504,-0.004855,-0.005));
#1091=CARTESIAN_POINT('',(-0.00504,-0.004855,-0.003));
#1092=CARTESIAN_POINT('',(-0.00504,0.0420725,0.00951));
#1093=CARTESIAN_POINT('',(-0.00504,0.0420725,0.00351));
#1094=CARTESIAN_POINT('',(-0.0025,-0.004855,-0.003));
#1095=CARTESIAN_POINT('',(-0.0025,-0.004855,0.00351));
#1096=CARTESIAN_POINT('',(0.1966475,-0.004855,0.00351));
#1097=CARTESIAN_POINT('',(0.1566475,-0.004855,0.00351));
#1098=CARTESIAN_POINT('',(0.1566475,-0.004855,0.00351));
#1099=CARTESIAN_POINT('',(-0.0025,-0.004855,-0.005));
#1100=CARTESIAN_POINT('',(0.1966475,-0.004855,0.00351));
#1101=CARTESIAN_POINT('',(0.1941475,-0.0034275,0.00351));
#1102=CARTESIAN_POINT('',(0.1916475,-0.002,0.00351));
#1103=CARTESIAN_POINT('',(0.1916475,-0.002,0.00351));
#1104=CARTESIAN_POINT('',(0.1941475,-0.0034275,0.00351));
#1105=CARTESIAN_POINT('',(0.1691475,-0.002,0.00351));
#1106=CARTESIAN_POINT('',(0.1616475,-0.002,0.00351));
#1107=CARTESIAN_POINT('',(0.1616475,-0.002,0.00351));
#1108=CARTESIAN_POINT('',(0.1691475,-0.002,0.00351));
#1109=CARTESIAN_POINT('',(0.1591475,-0.0034275,0.00351));
#1110=CARTESIAN_POINT('',(0.1591475,-0.0034275,0.00351));
#1111=CARTESIAN_POINT('',(0.1766475,0.0620725,0.00351));
#1112=CARTESIAN_POINT('',(-0.00354,0.0445725,0.00351));
#1113=CARTESIAN_POINT('',(-0.00204,0.0470725,0.00351));
#1114=CARTESIAN_POINT('',(-0.00204,0.0470725,0.00351));
#1115=CARTESIAN_POINT('',(-0.00354,0.0445725,0.00351));
#1116=CARTESIAN_POINT('',(-0.00204,0.0695725,0.00351));
#1117=CARTESIAN_POINT('',(-0.00204,0.0770725,0.00351));
#1118=CARTESIAN_POINT('',(-0.00204,0.0770725,0.00351));
#1119=CARTESIAN_POINT('',(-0.00204,0.0695725,0.00351));
#1120=CARTESIAN_POINT('',(-0.00354,0.0795725,0.00351));
#1121=CARTESIAN_POINT('',(-0.00354,0.0795725,0.00351));
#1122=CARTESIAN_POINT('',(0.1766475,0.0620725,0.00351));
#1123=CARTESIAN_POINT('',(0.1591475,0.1275,0.00351));
#1124=CARTESIAN_POINT('',(0.1591475,0.1275,0.00951));
#1125=CARTESIAN_POINT('',(0.1591475,0.1275,0.00351));
#1126=CARTESIAN_POINT('',(0.1941475,0.1275,0.00351));
#1127=CARTESIAN_POINT('',(0.1941475,0.1275,0.00351));
#1128=CARTESIAN_POINT('',(0.1766475,0.0620725,0.00351));
#1129=CARTESIAN_POINT('',(0.355335,0.093745,0.00351));
#1130=CARTESIAN_POINT('',(0.355335,0.101245,0.00351));
#1131=CARTESIAN_POINT('',(0.355335,0.101245,0.00351));
#1132=CARTESIAN_POINT('',(0.355335,0.071245,0.00351));
#1133=CARTESIAN_POINT('',(0.355335,0.071245,0.00351));
#1134=CARTESIAN_POINT('',(0.355335,0.093745,0.00351));
#1135=CARTESIAN_POINT('',(0.356835,0.068745,0.00351));
#1136=CARTESIAN_POINT('',(0.356835,0.068745,0.00351));
#1137=CARTESIAN_POINT('',(0.356835,0.103745,0.00351));
#1138=CARTESIAN_POINT('',(0.356835,0.103745,0.00351));
#1139=CARTESIAN_POINT('',(0.1766475,0.0620725,0.00351));
#1140=CARTESIAN_POINT('',(0.17675,0.0625,-0.005));
#1141=CARTESIAN_POINT('',(0.356835,0.053245,0.00601));
#1142=CARTESIAN_POINT('',(0.3564175,0.053245,0.00451));
#1143=CARTESIAN_POINT('',(0.3549175,0.044245,0.00601));
#1144=CARTESIAN_POINT('',(0.3564175,0.044245,0.00451));
#1145=CARTESIAN_POINT('',(-0.00302,0.04478625,0.00951));
#1146=CARTESIAN_POINT('',(-0.00302,0.07978625,0.00951));
#1147=CARTESIAN_POINT('',(-0.00302,0.07978625,0.00951));
#1148=CARTESIAN_POINT('',(0.1766475,0.0620725,0.00951));
#1149=CARTESIAN_POINT('',(0.1766475,0.0620725,0.00451));
#1150=MECHANICAL_DESIGN_GEOMETRIC_PRESENTATION_REPRESENTATION('',(#721),
#1151);
#1151=(
GEOMETRIC_REPRESENTATION_CONTEXT(3)
GLOBAL_UNCERTAINTY_ASSIGNED_CONTEXT((#1152))
GLOBAL_UNIT_ASSIGNED_CONTEXT((#1155,#1154,#1153))
REPRESENTATION_CONTEXT('Part 1','TOP_LEVEL_ASSEMBLY_PART')
);
#1152=UNCERTAINTY_MEASURE_WITH_UNIT(LENGTH_MEASURE(1.E-8),#1155,
'DISTANCE_ACCURACY_VALUE','Maximum Tolerance applied to model');
#1153=(
NAMED_UNIT(*)
SI_UNIT($,.STERADIAN.)
SOLID_ANGLE_UNIT()
);
#1154=(
NAMED_UNIT(*)
PLANE_ANGLE_UNIT()
SI_UNIT($,.RADIAN.)
);
#1155=(
LENGTH_UNIT()
NAMED_UNIT(*)
SI_UNIT($,.METRE.)
);
#1156=PRODUCT_DEFINITION_SHAPE('','',#1157);
#1157=PRODUCT_DEFINITION('','',#1159,#1158);
#1158=PRODUCT_DEFINITION_CONTEXT('',#1165,'design');
#1159=PRODUCT_DEFINITION_FORMATION_WITH_SPECIFIED_SOURCE('','',#1161,
 .NOT_KNOWN.);
#1160=PRODUCT_RELATED_PRODUCT_CATEGORY('','',(#1161));
#1161=PRODUCT('Part 1','Part 1','Part 1',(#1163));
#1162=PRODUCT_CATEGORY('','');
#1163=PRODUCT_CONTEXT('',#1165,'mechanical');
#1164=APPLICATION_PROTOCOL_DEFINITION('international standard',
'ap242_managed_model_based_3d_engineering',2020,#1165);
#1165=APPLICATION_CONTEXT('managed model based 3d engineering');
ENDSEC;
END-ISO-10303-21;
